/* XPM */
static char *_10fae24d9754146ae092b64b6927be0W8ZGcqJSFEyk4nQ3[] = {
/* columns rows colors chars-per-pixel */
"50 50 202 2 ",
"   c None",
".  c #66625C",
"X  c #6B655D",
"o  c #7E645D",
"O  c #6E6462",
"+  c #7B6F65",
"@  c #72706F",
"#  c #757474",
"$  c #7B7776",
"%  c #BE371F",
"&  c #BE3D21",
"*  c #C23E21",
"=  c #CF3B23",
"-  c #C93F2A",
";  c #D23B22",
":  c #BE4A24",
">  c #AB503F",
",  c #BD5235",
"<  c #C44523",
"1  c #C94423",
"2  c #C54B25",
"3  c #CC4B25",
"4  c #D24125",
"5  c #D44F27",
"6  c #D64D28",
"7  c #CC5127",
"8  c #CA532A",
"9  c #CC5F2B",
"0  c #D35127",
"q  c #D55528",
"w  c #D45C2B",
"e  c #DA5D2A",
"r  c #DC5428",
"t  c #C34B35",
"y  c #C75730",
"u  c #D85D32",
"i  c #E65E2C",
"p  c #E85F2B",
"a  c #CE652C",
"s  c #D5612B",
"d  c #DB622B",
"f  c #D4692E",
"g  c #DB6B2E",
"h  c #DA722F",
"j  c #C76539",
"k  c #D46532",
"l  c #DB6D32",
"z  c #D56538",
"x  c #D77431",
"c  c #DD7430",
"v  c #DF7D33",
"b  c #D97D3B",
"n  c #D47D36",
"m  c #CA7338",
"M  c #E6642D",
"N  c #E8632C",
"B  c #E46C2F",
"V  c #E96B2E",
"C  c #E4722F",
"Z  c #EA732F",
"A  c #E36C32",
"S  c #E06330",
"D  c #E67431",
"F  c #E97430",
"G  c #E57D32",
"H  c #E87D32",
"J  c #E37138",
"K  c #BC5B4B",
"L  c #B65C48",
"P  c #9A775B",
"I  c #B66749",
"U  c #BA6255",
"Y  c #896E68",
"T  c #857C7A",
"R  c #907874",
"E  c #A36C63",
"W  c #B56660",
"Q  c #B1786C",
"!  c #AD7D74",
"~  c #CA6E4B",
"^  c #C57A49",
"/  c #C07751",
"(  c #DD8435",
")  c #DD8A39",
"_  c #D88239",
"`  c #DA973F",
"'  c #E48335",
"]  c #EA8334",
"[  c #E58A36",
"{  c #E98C36",
"}  c #E58E3A",
"|  c #E59137",
" . c #E59339",
".. c #EA9639",
"X. c #E49B3B",
"o. c #EC9C3A",
"O. c #E89037",
"+. c #E6A23D",
"@. c #EDA53D",
"#. c #EEAA3E",
"$. c #F0A93C",
"%. c #F0A73D",
"&. c #ECB13F",
"*. c #A3815C",
"=. c #BB8B52",
"-. c #BC9757",
";. c #8F857D",
":. c #95867E",
">. c #9C8479",
",. c #988778",
"<. c #AF886B",
"1. c #B79667",
"2. c #A38275",
"3. c #AA8D74",
"4. c #B7827E",
"5. c #B58C71",
"6. c #C98546",
"7. c #D38842",
"8. c #D19C47",
"9. c #CD9C54",
"0. c #D29654",
"q. c #E2834E",
"w. c #E39D41",
"e. c #DCA343",
"r. c #DDB34C",
"t. c #DEBD57",
"y. c #D3A35A",
"u. c #E2A442",
"i. c #EAA443",
"p. c #ECAD41",
"a. c #E6AD46",
"s. c #EEB341",
"d. c #EFBA44",
"f. c #E9BD4B",
"g. c #F1B541",
"h. c #F1BA42",
"j. c #E6A351",
"k. c #ECBD58",
"l. c #DE8B63",
"z. c #E69466",
"x. c #CEB361",
"c. c #EFC247",
"v. c #ECC44D",
"b. c #EFCA4B",
"n. c #F3C646",
"m. c #F4C946",
"M. c #F2CC49",
"N. c #F3D34D",
"B. c #F4D94F",
"V. c #EFCD54",
"C. c #EBC556",
"Z. c #EDD75C",
"A. c #F2D859",
"S. c #EED267",
"D. c #F1D466",
"F. c #F2D978",
"G. c #8A8584",
"H. c #8E8D8D",
"J. c #9C8B84",
"K. c #928683",
"L. c #999898",
"P. c #A88B85",
"I. c #B28E86",
"U. c #AD9688",
"Y. c #AA9A98",
"T. c #B59A98",
"R. c #B8928C",
"E. c #BCA983",
"W. c #AAA195",
"Q. c #B9A399",
"!. c #AEA6A3",
"~. c #A4A3A4",
"^. c #B8B0AF",
"/. c #BEB8B5",
"(. c #C1BABA",
"). c #C8BCB4",
"_. c #D2BAA9",
"`. c #F0CD80",
"'. c #F2DC87",
"]. c #F2DB96",
"[. c #F3E28E",
"{. c #F2E090",
"}. c #E9C9A8",
"|. c #F2D7A1",
" X c #F3E8BB",
".X c #F5E9AC",
"XX c #DAD7D7",
"oX c #E1DAD5",
"OX c #F5EEC8",
"+X c #EAE2DD",
"@X c #F6EDDA",
"#X c #F4E7D9",
"$X c #F9F5DA",
"%X c #F9F3C8",
"&X c #F7EFE9",
"*X c #FAF8E7",
"=X c #FBF9EB",
"-X c #F4F1E9",
";X c #F8F7F4",
":X c #FBFBF7",
">X c #FCFCFB",
",X c #ECE9E6",
/* pixels */
"                                                                                                    ",
"                                                                                                    ",
"                                                                                                    ",
"                                                                                                    ",
"                                                                                                    ",
"                                                                                                    ",
"                                                                                                    ",
"                                  T E L , y y a j m ^ =.-.1.3.J.T                                   ",
"                              R L 8 d B G G G ] ] ] ] { +.b.Z.}._.Q.Y.H.                            ",
"                          O I w C G ] ] ] ] ] ] ] ] ] ] ] { s.[.*X;X+X).!.                          ",
"                        Y j c H ] ] ] ] ] ] ] ] ] ] ] ] ] ] ] i.].*X>X;XoX^.H.                      ",
"                      Y k G ] ] ] ] ] ] ] ] ] ] ] ] ] ] ] ] ] ] i.'.$X>X>X,X(.~.                    ",
"                    o l ] ] ] ] ] ] ] ] ] ] ] ] ] ] ] ] ] ] ] ] { #.D.%X:X>X:X/.L.                  ",
"                    x ] ] ] ] ] ] ] ] ] ] G G ] ] ] ] ] ] ] ] ] X.s.c.A.F.].'.S.E.                  ",
"                  ^ ] ] ] ] ] ] ] ] f 2 2 3 0 q q d C ] ] ] ] { d.n.n.N.N.n.n.n.r.U.                ",
"                P ' ] ] ] ] ] ] c 2 * 3 5 q q e q 5 0 d G ] { #.n.n.n.n.N.n.h.h.d.9.@               ",
"                7.] ] ] ] ] ] g & * 5 e D ..x 3 B B e 0 q c +.n.n.n.n.n.M.M.g.s.g.i.3.              ",
"              *.{ ] ] ] ] c 7 & 1 e B D ..#.@.w 0 F F B e q +.n.n.n.n.n.n.B.s.#.#.@.0.              ",
"              7.] ] ] ] ] f < 1 e F F G @.#.#.[ 1 B F F B e f s.n.n.n.n.n.N.c.@.@.@.w.;.            ",
"            + } ] ] ] ] ] x 3 e F F F { #.#.#.+.w e F F F C q ( n.n.n.n.n.m.N. .o.@.o.<.            ",
"            *.X.{ ] ] ] c & q F F F G o.#.s.g.g.) 3 B Z Z Z B s s.n.m.m.m.n.B.[ D H H ^             ",
"            -.s.@.O.] ] 8 1 B F F F ] s.h.h.g.g.#.3 d Z Z Z F B X.n.m.m.m.m.A.j.B F V l $           ",
"            r.m.n.h.#.X.2 q D G ' { o.g.g.g.g.g.s.b l.z.q.J F F [ n.m.m.m.n..X}.A V V A :.          ",
"            v.m.m.m.n.s.w v @.#.s.g.g.g.g.g.g.g.g.k.@X&X#X}.b d H h.m.m.m.b.$X@XA V V A >.          ",
"          . v.m.m.m.n.+.h s.h.g.g.g.g.g.g.g.g.g.g.d.].OX X`.p.s g s.m.m.m.V.=X&XJ V V V 2.          ",
"          X v.m.m.m.m.+.f p.h.g.g.g.g.g.g.g.g.g.g.g.s.s.s.s.+.2 d s.m.m.m.V.=X#XA V V V 2.          ",
"          X v.m.m.m.m.+.e [ g.g.g.g.g.g.g.g.g.g.g.g.g.g.g.#.9 3 D s.m.m.m.M. X|.M N N M 2.          ",
"          X C.m.m.m.m.#.d B { s.g.g.g.g.g.g.g.g.g.g.g.g.#.f 2 A G s.m.m.m.m.B.s.M N N M >.          ",
"          . t.m.m.m.m.s.d B F { s.s.g.g.s.s.g.g.#.@.@.X.a 2 A D G o.#.#.#.&.N.+.M N N S T           ",
"            x.M.m.m.m.n.h B F D [ #.g.g.&.#.@.@.o.o.o.f 7 B F F H o.@.@.@.#.B.' M M M z             ",
"            E.{.D.M.m.m.' g F F ] #.#.@.@.o.o.o.o.o.o.g d F Z F { @.@.@.@.s.N.B N N N ~             ",
"            ~.-XOXZ.M.m.#.g F F ] o.o.o.o.o.o.o.o.o.o.c e F Z F ..@.X.@.@.u._ r p p i !             ",
"            ~.XX=XF.m.m.h.' C F ] o.o.o.o.o.o.o.o.o.o.G e F F H o.x < n o.: % * i i u K.            ",
"              (. XC.s.#.@...D F ] o.o.o.o.[ ' o.o.o.o.G d C H ..X.9 < ( | * % 1 6 4 K               ",
"              !.y.@.@.@.@.@.O.G G ..X.{ c g C H { ..o.v d D { @.@...| @.#.' f 4 ; - I.              ",
"              $ 1.+.@.@.@.@.@...' ' G D C F F F F H H C D { @.@.@.@.@.p.a.G e ; = U #               ",
"                W.9.@.@.@.@.@.@.#.o.' D F F F F F F D H ..@.@.@.@.@.@.f.k 4 ; ; t Y.                ",
"                  W.u.#.#.@.@.$.@.s.c.s.X.[ ' H ' } X.@.#.@.@.@.@.#.s._ = ; ; = R.                  ",
"                    3.X.@.$.$.$.$.$.#.#.d.n.c.d.d.#.#.%.$.$.$.$.#.s.w.5 6 r 4 Q                     ",
"                      U.) @.#.#.$.$.$.$.#.$.$.#.#.#.#.#.#.#.#.#.s.+.l d d w !                       ",
"                        U.m X.#.#.#.#.$.$.$.$.$.$.$.$.#.#.#.#.s. .g e e 8 P.                        ",
"                          Y.I ( @.#.#.#.$.$.$.$.#.$.#.#.#.s.p.' d e 0 > Y.                          ",
"                            $ I./ n  .@.#.$.$.$.#.#.s.p.@.( w 0 t U R.H.                            ",
"                                # P.<.^ 6.` ` e.e.e.8.6.I K W 4.T.G.                                ",
"                                        T J.>.,.,.:.G.T $                                           ",
"                                                                                                    ",
"                                                                                                    ",
"                                                                                                    ",
"                                                                                                    ",
"                                                                                                    "
};
