/* XPM */
static char *out[] = {
/* columns rows colors chars-per-pixel */
"50 50 224 2 ",
"   c #030501",
".  c #060A04",
"X  c #090D06",
"o  c #070C09",
"O  c #0B0E09",
"+  c #100E06",
"@  c #0D1006",
"#  c #071008",
"$  c #0D110B",
"%  c #141106",
"&  c #11140D",
"*  c #1C160B",
"=  c #16180E",
"-  c #1C190D",
";  c #0D1210",
":  c #141610",
">  c #161911",
",  c #1B1C13",
"<  c #1B1E18",
"1  c #231C0D",
"2  c #2B1D0D",
"3  c #231D12",
"4  c #2C1E10",
"5  c #1E2015",
"6  c #1F211A",
"7  c #2B210F",
"8  c #33220F",
"9  c #232215",
"0  c #2C2413",
"q  c #25261A",
"w  c #2A271A",
"e  c #2E2B1B",
"r  c #322512",
"t  c #3B2411",
"y  c #352914",
"u  c #3C2B13",
"i  c #332A1A",
"p  c #3A2C19",
"a  c #3B311E",
"s  c #282C24",
"d  c #332E21",
"f  c #353122",
"g  c #41250E",
"h  c #422D14",
"j  c #4B2D12",
"k  c #422B18",
"l  c #532F11",
"z  c #453215",
"x  c #4C3415",
"c  c #44321B",
"v  c #4B341B",
"b  c #4D3A19",
"n  c #523414",
"m  c #5B3413",
"M  c #553A15",
"N  c #5B3B16",
"B  c #56361C",
"V  c #543C1B",
"C  c #5A3C1C",
"Z  c #643A15",
"A  c #6B3C16",
"S  c #653B19",
"D  c #783F19",
"F  c #443C23",
"G  c #4B3E29",
"H  c #593D22",
"J  c #57421A",
"K  c #5C411C",
"L  c #64421B",
"P  c #6B431B",
"I  c #6B491F",
"U  c #73421A",
"Y  c #744C1D",
"T  c #7C4B1E",
"R  c #7D511F",
"E  c #47412C",
"W  c #554224",
"Q  c #5D4225",
"!  c #5B432A",
"~  c #55492C",
"^  c #494232",
"/  c #594A32",
"(  c #595139",
")  c #644523",
"_  c #6A4623",
"`  c #654822",
"'  c #6C4B23",
"]  c #65462A",
"[  c #634B2B",
"{  c #6B4D2D",
"}  c #744C23",
"|  c #774A26",
" . c #6C5329",
".. c #785224",
"X. c #74512B",
"o. c #7B552C",
"O. c #614A32",
"+. c #634F3A",
"@. c #675439",
"#. c #745332",
"$. c #7A5935",
"%. c #7C5D3A",
"&. c #78673B",
"*. c #52524E",
"=. c #735D40",
"-. c #796844",
";. c #797058",
":. c #586B77",
">. c #7B7660",
",. c #81451A",
"<. c #834C1E",
"1. c #97551F",
"2. c #824E21",
"3. c #8D4F21",
"4. c #904F22",
"5. c #845424",
"6. c #8C5323",
"7. c #8C5C24",
"8. c #865629",
"9. c #8B5D2E",
"0. c #925323",
"q. c #995523",
"w. c #975C28",
"e. c #835D35",
"r. c #885D33",
"t. c #815D38",
"y. c #A25B24",
"u. c #A55B24",
"i. c #89612F",
"p. c #9C6527",
"a. c #94632A",
"s. c #9B662A",
"d. c #846237",
"f. c #8C6234",
"g. c #85633B",
"h. c #8C663B",
"j. c #8D693C",
"k. c #966937",
"l. c #946A3D",
"z. c #AD6525",
"x. c #A96728",
"c. c #A9652A",
"v. c #A46C2C",
"b. c #B46B27",
"n. c #AA702E",
"m. c #BA7328",
"M. c #A66934",
"N. c #AD7433",
"B. c #AA723B",
"V. c #B37534",
"C. c #BA7531",
"Z. c #B97936",
"A. c #B47C3B",
"S. c #BB7C3A",
"D. c #C6792A",
"F. c #C37A2C",
"G. c #C07E3D",
"H. c #A85C45",
"J. c #846947",
"K. c #8D6A44",
"L. c #956C43",
"P. c #936F4A",
"I. c #877049",
"U. c #987349",
"Y. c #9D754B",
"T. c #877958",
"R. c #9A775A",
"E. c #A47844",
"W. c #A47B4B",
"Q. c #AC7B4C",
"!. c #B77B42",
"~. c #A47E52",
"^. c #A97E52",
"/. c #B9813A",
"(. c #BA833C",
"). c #CC832C",
"_. c #C68538",
"`. c #D28B36",
"'. c #948252",
"]. c #A0804F",
"[. c #BC8642",
"{. c #BE8945",
"}. c #B88348",
"|. c #BF8B49",
" X c #AA8153",
".X c #A2815A",
"XX c #A38B5B",
"oX c #B58B5C",
"OX c #989076",
"+X c #AF926C",
"@X c #B79564",
"#X c #C28D46",
"$X c #C88945",
"%X c #C48C4B",
"&X c #D08C41",
"*X c #C6954D",
"=X c #CC954F",
"-X c #C99757",
";X c #CB9B53",
":X c #CFA25E",
">X c #D8A65D",
",X c #DEB05E",
"<X c #C49D6A",
"1X c #D3AA64",
"2X c #D5AD6B",
"3X c #D8AC69",
"4X c #C8A779",
"5X c #DBB473",
"6X c #D8B87A",
"7X c #6F7D88",
"8X c #8C8680",
"9X c #C9B288",
"0X c #DEBD82",
"qX c #C2BCA8",
"wX c #BEC3BC",
"eX c #DEC396",
"rX c #E5C28A",
"tX c #E0C495",
"yX c #D9CBA3",
"uX c #E6CEA3",
"iX c #E5D6AB",
"pX c #E8DAB5",
"aX c #EEE1BC",
"sX c #F0E6CC",
/* pixels */
"$ $ $ $ < & O $ O O $ O O O $ $ $ $ = & & : & $ O & X $ & < & O $ $ $ $ $ X O O $ & + = & : & & O O ",
"$ $ X @ > & $ $ ; $ : X X $ X $ $ & & $ X . X O O : O X O > & @ $ # $ & O o O X $ O $ & X X . X O : ",
"& & > X   . . . . .   o . o . o X X X , 9 > : $ & & & > #   . X .   . . o . . . X X X # = w > : $ & ",
"& & & $ X         O > : : $ & + $ $ & X 6 $ $ $ & $ > : $ X         3 F ~ / F w & $ & & X q $ O & : ",
"$ $ & O $ X .   X ; O $ ; $ $ $ & : > X < = > O : $ $ $ @ $ X . 3 h.[.S.S.B.B.!.~.e : : $ : , > O & ",
"@ $ @ $ $ # # . > & : ; ; $ & & : $ $ $ O 5 < : $ $ # $ $ $ y i.S.c.w.<.T P U 6.w.Q.G ; $ + , , > O ",
"$ $ # @ X X X X > & $ & $ $ $ ^ f X > 3 $ > > s s & : $ $ a N.C.y.,.m l j l m m _ 9.Q.3 3 & : : & $ ",
"> O . . . . # $ X X O $ & & & @.r.8 & O @ X & :.+XJ.7X*.{ w.C.v.T Z j j N ..&.` N A M.P.$ O X O O , ",
"> & : & $ $ O < , , > & & $ O F 6X:XJ % $ & E B #.7X*.8XR.| | 6.Z j j X.~.@X.XP.| S 2.}.9 $ & O O > ",
"$ X $ $ : # & O $ & $ $ O X & & ;.9XrX/.<.1.m.z.r.wXs ( | H.q.<.m l 5.<X9XI.[ g.J._ 2.%Xf O X X o > ",
"; O $ $ & $ X   $ X .         , ;.# d ( @X=X_.F.b.V.%X3X_.q.q.D n P @X^ 3 * y J.P.| | !.i       . & ",
"O $ $ ; $ $ $               $ O 5 & $ = @ E T.XXXXXX'.aXiXoX3.S l )         T.4Xl._ 2.|.3 X o o   : ",
"O o O $ O $   X . X X X O & O & # $ $ $ O O O #  .-.&.XXiXyXQ.A m v . . O 3 9X!.0.4.M.^.$ O X O . X ",
"O o X & X % + X X $ + X     . X ; $ $ $ O > / &. .y 0 v I.aXM.U m Q $ & d 9X^.q.q.u.G.w $ & O $ . $ ",
"X $ o = & %   X O & O & , & .     # X X : qXsXeXa.Z 8 X h 4Xb.3.m B & $ R.H.q.M.u.Z.#.o X X X X . . ",
"& & X < $ O X $ & , & $ & + O           9 sXsX-Xm.5.B X w <.q.y.l L , & $.9.w.u.!.c           X $ > ",
"@ # X & $ $ # $ $ & $ $ & $ O       O O f iXtXC.b.3.H O & k 4.u.m } & $ > O.$.Q *     X O X O X & O ",
"O $ X $ $ & & $ : $ $ $ $ & & . X X O 9 OXpX:Xb.u.] $.X X 4 D z.m 8.& O $ $ & & . X X O O $ O & : X ",
"& & .   $ = 5 5 > & & $ X O & . X X >.yXpX5XF.m.m 1 0 .   O S y.Z ..= $ $ X X & X   X O X % X X & X ",
"X X . .                 . X X X q OXuXrX>X`.).a.X 1 X . .   m b.Z o.      X X . X X X + . . . . X . ",
"@ X & # .               X X % 0 <X%X=X&X).D.`.&., 2 @ $ X   N m.Z ..      X X X $ , : X o X ; & 3 < ",
"O O $ & X X . o # X . X S a.N._.D.b.u.z.m.D.C..X$ 1 & & $ # s.U n.q # X   o O O $ & & O # ; O + & O ",
"$ X & O & & $ $ $ $ X u G.$X&X`.$X_.c.q.q.<.1.C.i 1 @ = x k.<.a.W $ $ X X O X X # ; O O $ O O : O & ",
"      X & & O O # X > x c.c.S.$X%X$XG.u.3.L w.=Xo.A 1.U m 6.A.a X X X , O ; & & . X X     . o       ",
"X O X O < > & O O > : , D <.0.M.C.C.V.v.T T z./.) X.%.J.H F e $ O O > : $ X X X O O O & O > O O $ O ",
"; ; & $ 3 $ O $ O O O O $ m D 4.,.q.2.5.U 7.p.Y p  .&.j. Xl.9 @ O ; $ $ X X O O @ & + = & & : & ; ; ",
"$ . X % < $ $ $ O ; : X X 2 g D <.<.Z n m Y i.a.b ..P.L.Y.l.-.& O O O : O o O O % $ $ & X O . . X & ",
"& & : X   X X X . . o X X 2 2 t j Z i.}.#X(.N.z K ` $.U.^. X]./ X o X . X o X . X X O $ = 9 > > & & ",
"$ = = $ . .       # > & $ 4 8 g ) }.-X2X3X*Xi.u J X.d.P.Y.W.j.h.X   X : & $ # & X X X X X w O O + & ",
"$ $ $ $ $ .     X O ; O $ x m k.-X2X0X0X2X|.J 9 K  .@XoXY. XW.].* X $ ; ; & $ $ $ $ & & $ , , : + & ",
"$ @ $ $ % # # . = : & & 3 ) Y.-X2XrXrX6X1X{.b w u C $.l.Y.oXf.e.y & ; : & : $ $ & & $ & O X < < : ; ",
"$ $ # @ X # # . < $ ; = ) B.|.:X1X5X5X3X:X|.J y z K $.L.j.f.E.9.X., : ; $ O $ & $ O X = 9 $ : : : + ",
": # X . .   X $ o   * B r.!.#X*X:X1X1X,X;X{.].7 7 J J @XE.l.f.} ' X X X O & $ & & & & $ $ $ X $ O < ",
"= $ & & $ & + , , 3 8 ! l.!.#X%X*X:X;X:X;X(.a.y 1 J L &.r.Y.9._ ` , , > * & $ + X X $ $ X $ $ $ + > ",
"& $ X $ $ O O % * 1 4 #.f.M.Z.(.*X_.*X;X|./.v.u 0 n d.W.o.X.o.k.` 1 & $ $ $ X $ X . & X O # X $ . > ",
"O O # $ & $ & 1 * O p { i.v.n.N.(.(.|.|.|./.v.y 0 x o.X.h.<Xk.) ) t & $ = .     & o . .           : ",
"; O O $ O $ 1 .   9 p ` 8.p.x.n././.(.(.(.N.p.u 0 z V L.e.l.j.X.' y * 1 b *   X : > > & $ # . . . : ",
"O ; $ & $ & X X v p u M ..7.a.s.v.n.N././.v.p.K 0 u ` o.j.W.} X.J 1 . X $ j.$ $ $ O O $ $ O o O   X ",
"O X . O X % + X & u u j N P R R 7.a.p.v.v.p.a.8 7 x J t.X.$.d.E...3 & O . [ * X O : $ $ ; $ O $ . ; ",
". O o , & +   X O 3 u u x N L I Y R R 7.7.5.Y r u J J  .L.oXr.X.` r $ O = u y .   . $ X X $ X O .   ",
"& & X 9 & # . $ > < t u v b N C L P Y R 7.R K 8 7 x n d.W.{ K.X._ i < & $ & @ O               . O > ",
"@ $ o = @ # $ $ & & - k h j n N L } Y R Y Y x 7 - y c v ] K.#.g.) y & $ $ & & $       X O O @ X & $ ",
"# $ X $ & & $ $ & & O r v v x n x M K N M M u 7 7 7 r p G g.#.e.) 3 $ $ & $ $ &   X X X O $ O @ & O ",
"& & . . & = = 5 = & $ & i ! H B M m M M x z u 8 7 0 7 c B ) ] #.] 3 = $ $ X $ $ .   X O O & X @ % $ ",
"X X . .           .   . X 3 G O.! Q H C V x h u 7 r u c k ] { H {     . . . o . X . X $ X X     O . ",
"@ $ @ X                 . . X i +.+.O.! H M z u 7 y 7 r p F H ] y         o X . $ < $ . X $ & $ , > ",
"$ $ $ : X o # # X X . . o $ O : > w f =.O.! V v u 1 0 7 p k ! t.= X X X . o $ X & & $ O $ $ $ $ : O ",
"O $ $ $ ; $ ; $ $ # o o o O X $ ; ; ; $ < 9 i 0 7 9 - 7 0 4 c v & $ $ X o o X o $ $ $ $ # $ $ & $ O ",
"    o O : $ + O O X > O O $ O X X X X X o .         1 3 4 2 1 3 $ X X > # $ $ $ O O O . X .   .     ",
"X X X O , , & O X : > & X X X X O & = O $ $ ; + o o O * * * 3 : & $ , 6 < X O # & & * 5 = < & & : O "
};
