/* XPM */
static char *out[] = {
/* columns rows colors chars-per-pixel */
"50 50 230 2 ",
"   c #000000",
".  c #080704",
"X  c #0A0905",
"o  c #0C0B0A",
"O  c #14120E",
"+  c #191509",
"@  c #0C0E1A",
"#  c #110F10",
"$  c #0F111C",
"%  c #141211",
"&  c #191611",
"*  c #12141E",
"=  c #1C1B1B",
"-  c #21160D",
";  c #221D0C",
":  c #261D19",
">  c #221D1C",
",  c #341F16",
"<  c #27230D",
"1  c #2A2617",
"2  c #34221B",
"3  c #3A2818",
"4  c #3B3415",
"5  c #131621",
"6  c #161923",
"7  c #1A1C24",
"8  c #1B1E28",
"9  c #221F23",
"0  c #1D2127",
"q  c #1E212B",
"w  c #252324",
"e  c #2B2423",
"r  c #22242C",
"t  c #2C2A2B",
"y  c #322926",
"u  c #352927",
"i  c #3C2A23",
"p  c #3D2D2B",
"a  c #3D322A",
"s  c #212631",
"d  c #242A33",
"f  c #332F32",
"g  c #27303A",
"h  c #2C333E",
"j  c #3B3638",
"k  c #422A1C",
"l  c #482C19",
"z  c #502F1E",
"x  c #46361A",
"c  c #55331C",
"v  c #432E23",
"b  c #432F27",
"n  c #443125",
"m  c #4A3225",
"M  c #45332C",
"N  c #4B352C",
"B  c #4B3A2A",
"V  c #523523",
"C  c #583B27",
"Z  c #533A2C",
"A  c #453532",
"S  c #483736",
"D  c #4B3A34",
"F  c #45393A",
"G  c #4B3B3B",
"H  c #533D32",
"J  c #553D36",
"K  c #613E25",
"L  c #49421E",
"P  c #5C442A",
"I  c #49423A",
"U  c #5C4334",
"Y  c #594634",
"T  c #54413D",
"R  c #5B453B",
"E  c #64452C",
"W  c #6A462C",
"Q  c #774D2F",
"!  c #66522C",
"~  c #634532",
"^  c #674A37",
"/  c #634B3D",
"(  c #734C31",
")  c #6E563C",
"_  c #7B5233",
"`  c #72543C",
"'  c #785338",
"]  c #2E3743",
"[  c #333D49",
"{  c #463E42",
"}  c #3B444C",
"|  c #3A4853",
" . c #3F515C",
".. c #4B4646",
"X. c #544543",
"o. c #5C4B44",
"O. c #564949",
"+. c #5B4C4C",
"@. c #5D544A",
"#. c #485159",
"$. c #5B5857",
"%. c #634E44",
"&. c #644E46",
"*. c #6C5345",
"=. c #63524C",
"-. c #695548",
";. c #6A554A",
":. c #735846",
">. c #7B5B44",
",. c #745A4C",
"<. c #695854",
"1. c #725D52",
"2. c #6F6055",
"3. c #766153",
"4. c #7C6353",
"5. c #78665B",
"6. c #7D695C",
"7. c #555D64",
"8. c #4D6774",
"9. c #6A6664",
"0. c #716560",
"q. c #756B62",
"w. c #7C6C64",
"e. c #717167",
"r. c #7E7C73",
"t. c #805535",
"y. c #865C3B",
"u. c #89603F",
"i. c #805E43",
"p. c #836245",
"a. c #8B6343",
"s. c #88694C",
"d. c #966946",
"f. c #956C4A",
"g. c #99714D",
"h. c #866A55",
"j. c #836C5C",
"k. c #8B715C",
"l. c #977557",
"z. c #A57950",
"x. c #816F64",
"c. c #837163",
"v. c #8A7463",
"b. c #867769",
"n. c #8C7B6C",
"m. c #927864",
"M. c #937D6B",
"N. c #887C71",
"B. c #907E71",
"V. c #AB845E",
"C. c #B18659",
"Z. c #9A8268",
"A. c #8D8174",
"S. c #8B867B",
"D. c #948373",
"F. c #948679",
"G. c #988979",
"H. c #9A8C7C",
"J. c #9F907F",
"K. c #A78766",
"L. c #B28B62",
"P. c #B8936B",
"I. c #A58E75",
"U. c #A5927B",
"Y. c #AB957C",
"T. c #B69976",
"R. c #BDA37A",
"E. c #C49F73",
"W. c #C6A479",
"Q. c #D5AF7E",
"!. c #567884",
"~. c #5F8490",
"^. c #729AA4",
"/. c #9E9384",
"(. c #979389",
"). c #9E9A8C",
"_. c #A29483",
"`. c #A99986",
"'. c #A49A8B",
"]. c #AA9D8B",
"[. c #B29D82",
"{. c #AEA28D",
"}. c #BBA68A",
"|. c #ACA394",
" X c #AAA698",
".X c #B7AA97",
"XX c #B5AC9C",
"oX c #BBB19E",
"OX c #B3AEA2",
"+X c #BBB5A6",
"@X c #BDB5A4",
"#X c #BEBBAB",
"$X c #C6AB88",
"%X c #CFB187",
"&X c #D8B688",
"*X c #C2AD92",
"=X c #C5B499",
"-X c #E2BD8C",
";X c #C5B9A4",
":X c #CDBDA1",
">X c #C3BDAB",
",X c #C4BFB2",
"<X c #DFC090",
"1X c #E1C18F",
"2X c #E4C494",
"3X c #E5C89A",
"4X c #EACB9B",
"5X c #C5C0AF",
"6X c #CAC1AD",
"7X c #D8C6A8",
"8X c #C6C2B3",
"9X c #CAC4B3",
"0X c #CEC8B6",
"qX c #CDCBBA",
"wX c #D5CCB4",
"eX c #D3CDBA",
"rX c #D6D1BE",
"tX c #D9D2BD",
"yX c #E9CEA1",
"uX c #ECD2A4",
"iX c #EFD8AD",
"pX c #F0D8AC",
"aX c #EADAB8",
"sX c #F2DDB5",
"dX c #D5D4C2",
"fX c #DAD6C3",
"gX c #DDD9C6",
"hX c #DADAC8",
"jX c #E1DCC9",
"kX c #E4E0CE",
/* pixels */
"                                                                                                    ",
"                                                                                                    ",
"                                                                                                    ",
"                                                                                                    ",
"                                                                                                    ",
"                                                                                                    ",
"                                                                  o o o .                           ",
"                                                              . O.e.N.N.2.w                         ",
"                                                . . .   o % # = ).+X X XB.0.& #                     ",
"                                    o         w r.(.r.2.S.w.=.q.N.'.+X'.B.b.x.0.y                   ",
"                                > r.qXS.t 9.).(.OXOX/.F.XXw. XXXN.w.D.B.'.B.n.x.O.                  ",
"                              e.dX8X).G.0XhX>X#XS./.H.c.n.n.,X+X_.6.j..X'.].n.w.O.o o               ",
"                              5XdX'.A.9XdXhXhX>Xc.D.b.B.'.F.dXeX{.x.v..X=X[.M.=.O.j ....#           ",
"                            w qX#X XtXhXdXeX9X].1.c.F.'.|./.rXdX|.B.c.=X:XM.1.1.X.F =.<.+.9         ",
"                            S.8X/.eXgXkXjXeXoXw.=.6.H. XXX'.eXwX].n.h.T.[.j.3.1.+.F 6.<.+.w         ",
"                          I #X+XD.dX6X@X6XoXv.j.N :.].;X,X}.,X,X.Xb.4.M.M.4.3.=.o.A =.<.+.>         ",
"                    . j  X_._._.m.0X|.0X9XXXU.c.Z T |.=X;X{.6XwXeXj.:.k.,.,.5.R A S O.=.<.=         ",
"                o O. X#X/.].,X.Xn.XX5XtX0X|.G.,.n m n.;XY.U.eXeXgX`.,.`.h.*.:.J =.0.{ <.+.%         ",
"                $.9X,X/.F.9XeX>XD.U.eXtX0X`.4.M n v m =Xl.m.>XtXgX;X,.k.h.J ^ x.oXoX<.<.+.%         ",
"                S.qX8XH./.qX9X/.k.G.rXhX6Xv.;.i U m k U :.>.oXtXrX;X:.k.*.J }.9X;XB.+.{ +.{ o       ",
"                 X9X8XA.'.+XoXm.4.J.gXtXU.;.o.n >.n n 4 ` m D.tXwX.X` 4.,./ :XtX;XM.,.G X.+.{ #     ",
"              o #X X+Xn.'..X+Xj.,.XXfX5X4.-.n n Y n e t / n %.eX:X.X~ U U / :XtX:X].c.{ O.O.{ 9     ",
"              j 9X{.j.5. X;X.X6.3.@XeX@X,.o.m e * 6 $ $ 6 * y 4.Z.I.Z Z Z H *X:X[.$Xv.X.o.&.{ b     ",
"            O ).XXD.,.w.@X|.5.R -.XX@X{.=.n a $ @ @ $ * * 0 * = 2 Z V V U J [.l.l.Y.n.&.{ &.{ {     ",
"          X S.{._.F.1.n.5.c. X|.=.R /.x.p u $ * * @ * * 7 8 7 6 = i ) l ` U Y.*XT.$XG.%.S J { F     ",
"          @.#XXXD.1.*.%.M.G..X0.G 2 N N i @ @ 5 * * 8 * 8 8 6 8 5 > U 3 >.^ =X7X:Xl.I.%.G S { u     ",
"          q.+X#X/.1.&.J 4.n.8XH.X.3 D v p @ $ @ @ 6 q 8 q 9 5 6 r 9 v V i.>.*XwX}.k.>.H o.S G >     ",
"        . q.5XXX/ %.M.b.J w.,XN.S i M p 5 @ @ * * * q r 5 7 7 6 8 9 D s.` l.$XaX=Xl.>.( &.G { o     ",
"        . r.oXJ.&.*.m.x.S 1.;Xj.S 9 = 9 @ 5 5 * 6 6 8 8 8 8 8 8 q 6 y E z ( }.7X$Xk.` p.&.G a o     ",
"        X b.{.Z.&.,.1.0.J =..X&.G : @ $ 5 8 5 5 q 6 8 ] s s s s q 6 1 Z V V T.$XI.f.^ i.R A p o     ",
"        1 D.`.4.&.h./ %.S -.G.{ A 7 @ 5 8 8 6 8 s g ] | ] d s s r q 9 i ( y.K.T.K.l.~ N b A S =     ",
"        D v.m.,.*.h./ R M %.v.J u 5 $ 6 8 8 8 8 ] ] | 8.8.] g s r r 9 9 ~ f.l.z.K.l.^ v M G S j     ",
"        a k.6.) 3.4.~ R b n 3.N t r 5 * 7 8 q d [ h #.!.~. .] s g 8 8 0 E u.y.u.g.a.` b M A A u     ",
"    < < < ) 4.! ,.4.J H u N ;.p 1 e 7 7 * r s g [ h  .~. X~.] s s 8 d w _ t.g.z.y.^ ~ b b b M 9     ",
". + + L x P ` ^ ~ :.Z H , b Z p : e t = w t h g [ ] } 8.^.^.| d r t w Z g._ t.t.( p.p.s./ b A F .   ",
"  X 4 L 4 L B Z m :.Z m , U k i e e 2 t f h } #.#.$.7.$.$.#.{ ] f e Y V.g.Q u.t.p.P.K.s.C o.o.{ #   ",
"      < x Y Z Z k C v , i Z v Z R A j F +.@.$.9.9.9.9.q.q.w.q.5.5.p.g.g.! t.u.Q K a.Q ( C Z J b 2   ",
"      + x ! E ' t.^ , , v 3 , v C E Y D =.5.k.Y.$X$XE.E.E.W.P.d.f.y.u.u.K K _ c z Q K K z m b i y . ",
"  < < 4 4 4 x W a.z.z.( ( s.z.L.P.T.%X%X3X3X<X<X-X-X-X-X-X&XW.L.d.t.t.t._ K c c K K z l l m C k -   ",
"  X ; < 4 4 4 C ( >.K W s.P.&XuXiXsXaXsXsXaXsXiXyX3X4X2XyX3X4X4X2X1X&X&XQ.C.u.u.t.Q _ _ t.t.W - .   ",
"      . - 3 l V ( y.g.z.z.E.-X-X2X4X4XuX1XQ.3XuXuXuXuXiXpXpXpXiXiXuX&X3XyX2X2X2X&XW.K.s.Y <         ",
"                . X O + ; k m C E ` >.Z.R.&X3XuXuXuXyX4X4X4X4X4XyX&XW.Y./ I a 1 & X X               ",
"                                          O & & & & & & & & & & & O O .                             ",
"                                                                                                    ",
"                                                                                                    ",
"                                                                                                    ",
"                                                                                                    ",
"                                                                                                    ",
"                                                                                                    ",
"                                                                                                    "
};
