/* XPM */
static char *out[] = {
/* columns rows colors chars-per-pixel */
"50 50 183 2 ",
"   c None",
".  c #050201",
"X  c #0D0502",
"o  c #0E0804",
"O  c #110703",
"+  c #150A04",
"@  c #1B0D05",
"#  c #190F09",
"$  c #140E0B",
"%  c #1F1006",
"&  c #1C130D",
"*  c #220F05",
"=  c #241206",
"-  c #2C1405",
";  c #2E1807",
":  c #231309",
">  c #2A1609",
",  c #2D1A0B",
"<  c #311504",
"1  c #391703",
"2  c #341906",
"3  c #3C1B04",
"4  c #331C0C",
"5  c #3A1E0A",
"6  c #2D1D13",
"7  c #361D10",
"8  c #3F2107",
"9  c #3C210D",
"0  c #2D2116",
"q  c #342215",
"w  c #3B2311",
"e  c #392619",
"r  c #35261A",
"t  c #431C03",
"y  c #4B1D02",
"u  c #432106",
"i  c #4B2205",
"p  c #43240D",
"a  c #4B260A",
"s  c #47280F",
"d  c #4B290E",
"f  c #542303",
"g  c #5B2603",
"h  c #562906",
"j  c #5E2A04",
"k  c #542D0D",
"l  c #592D0B",
"z  c #5B310E",
"x  c #442611",
"c  c #492710",
"v  c #462A14",
"b  c #4B2C13",
"n  c #532D11",
"m  c #553014",
"M  c #5C3413",
"N  c #5F3A1C",
"B  c #59351A",
"V  c #622502",
"C  c #632B03",
"Z  c #6B2D02",
"A  c #602F09",
"S  c #712D02",
"D  c #7A2F01",
"F  c #643107",
"G  c #6D3104",
"H  c #65300A",
"J  c #6B380F",
"K  c #6A360A",
"L  c #743203",
"P  c #7B3402",
"I  c #7D3903",
"U  c #783108",
"Y  c #623612",
"T  c #633914",
"R  c #6A3B13",
"E  c #713E14",
"W  c #4B3727",
"Q  c #49362B",
"!  c #513721",
"~  c #543B25",
"^  c #503729",
"/  c #7A400E",
"(  c #6E4017",
")  c #6E451F",
"_  c #764316",
"`  c #7A4516",
"'  c #73461C",
"]  c #7E4619",
"[  c #7F4818",
"{  c #564437",
"}  c #5C4838",
"|  c #6A472B",
" . c #6C4726",
".. c #704722",
"X. c #784A22",
"o. c #7F5125",
"O. c #79502B",
"+. c #7C5735",
"@. c #66534C",
"#. c #823602",
"$. c #843902",
"%. c #8B3D02",
"&. c #903F04",
"*. c #8D4103",
"=. c #8B420A",
"-. c #944302",
";. c #9A4603",
":. c #9C4902",
">. c #984708",
",. c #834613",
"<. c #824815",
"1. c #8B4C13",
"2. c #804718",
"3. c #915116",
"4. c #9A5616",
"5. c #995B1E",
"6. c #A34C02",
"7. c #A94E02",
"8. c #A04C09",
"9. c #A75202",
"0. c #AC5202",
"q. c #A9570B",
"w. c #B25503",
"e. c #B85701",
"r. c #B55802",
"t. c #BC5B03",
"y. c #B15708",
"u. c #A05818",
"i. c #BF6003",
"p. c #A9631F",
"a. c #B26417",
"s. c #814E20",
"d. c #8A5623",
"f. c #8E5A26",
"g. c #815634",
"h. c #996027",
"j. c #8F6033",
"k. c #9C6B3A",
"l. c #A56526",
"z. c #B16D25",
"x. c #B4702D",
"c. c #A36E3A",
"v. c #AB7238",
"b. c #B77935",
"n. c #B17738",
"m. c #B57533",
"M. c #C05E03",
"N. c #C46203",
"B. c #CA6503",
"V. c #CE6803",
"C. c #D46D04",
"Z. c #DA6F04",
"A. c #CF7005",
"S. c #DC7204",
"D. c #CD7A15",
"F. c #E27603",
"G. c #E57A04",
"H. c #EB7D04",
"J. c #E47E0E",
"K. c #956941",
"L. c #A57948",
"P. c #A27C5B",
"I. c #BD803D",
"U. c #EE8305",
"Y. c #E48009",
"T. c #EC8409",
"R. c #F18607",
"E. c #F08708",
"W. c #F28B0C",
"Q. c #F28E10",
"!. c #F39314",
"~. c #F59619",
"^. c #CB802B",
"/. c #CA873E",
"(. c #E89623",
"). c #F7A936",
"_. c #F6AE3D",
"`. c #F3A634",
"'. c #AF885A",
"]. c #B4885B",
"[. c #AE8966",
"{. c #C8945A",
"}. c #CBA57B",
/* pixels */
"                                                            0 w q                                   ",
"                                                      0 , % : > 0                                   ",
"                                                L.b 6 : : % + # &                                   ",
"                                                '.v :                                               ",
"                                                  ) 0                                               ",
"                                                +.d.b                                               ",
"                                                v N M                                               ",
"                                R M 3 + 5 s 7 q 9 > 9                                               ",
"                      ( _ R v 4 3 u p = ; p ; ; ; + = = = 9 , % ,                                   ",
"                c.f.T v k l 9 d a 4 3 2 3 2 8 8 = + % = % > > % , : > w v                           ",
"            j.X...M n b z E p z z , - u l 2 u F 8 @ + + % 2 9 = 8 9 s , q , %                       ",
"          L.O.B w s / l m M k s k 4 2 h h 2 3 h = % < = 2 = % 2 8 - , q d % ; : $                   ",
"        ].k.s.s.f._ 3.( M [ 4.l p u ; 2 2 - - 2 = - a 2 h a = 3 a 9 s ; 9 > 8 > o + &               ",
"        {.b.b.b./.h.^.5.R 4.a.Y Y ,.k - - 2 < = - ; i 2 h F 2 ; ; 9 d 8 s 2 a ; % + % : q           ",
"        {.v.v.n.x.l.z.[ _ [ 3.M _ 4.J 4 i l u 2 i ; 2 > i l 9 4 9 8 9 9 l , 8 ; = @ > % w           ",
"      }.K. . ...l._ R R T T z k J 1.z 9 K z 3 i l ; 4 l d p ; 9 z a q , 8 = > % % @ > : 9 ~         ",
"      [.g.N N m 3.n d J l c n Y k l x p c c 4 a t 7 M 1.2.x x 5 R n 4 > : = , * O @ = = 9 B         ",
"      ].O.B B x E 5 n Y c p l Y p 9 9 R c 7 p 4 , x 2.1.2.b m 4 d 5 5 - * @ 2 = O + + : 8 {         ",
"      P.| v x 7 p > x k 5 5 n c p p w M c n M 7 n n R ] T 7 5 4 , : : @ > @ * @ + = O - w ~ }       ",
"        ^ e 6 > : O > 4 # > p 4 5 a 4 5 7 M m b R n v n 7 , > 4 , * + + * + + @ @ @ O : e ^ }       ",
"        Q 6 & = t 1 < @ + * = + : 5 : : , x 7 c n 7 7 7 7 4 < : - @ @ + + + @ + O O @ + q W }       ",
"              K U C f y t - + + @ : + 7 @ : : 7 , 4 x 7 4 , > @ + @ * + * + @ + O o + @ 0 W }       ",
"              q.0.-.P V f y f i f y t * + + @ @ @ 7 4 : = > * @ * = * + @ + = + @ o X % e Q @.      ",
"              D.A.i.8.#.Z V g g g g f f y y t - + * O O O @ X + + @ + O + + @ X o X X & r {         ",
"              (.T.S.i.:.=.P F C C j g g y y y t t < @ * + X . X . O X . . X X X X + + &             ",
"              ).!.Y.C.t.0.-.*.I I L Z G g f y i y y y t t < - * * @ O O + + + * = ;                 ",
"              _.~.E.G.Z.B.y.:.*.*.*.I I P C g f f g f y y y y t t 1 1 < - - - - < 1                 ",
"              _.~.W.T.G.S.B.r.9.6.;.-.;.*.I L G V V V g V g g y y t 1 1 1 3 1 1 1 3                 ",
"              ).!.W.T.U.U.S.B.w.r.w.9.9.;.*.$.I L G L C V V g g f y y y t u u 2 2 u                 ",
"                !.W.W.E.U.G.S.B.N.i.r.w.9.;.*.*.I P P G S Z j V f g f i t y t 3 3 u                 ",
"                W.Q.W.R.U.H.F.C.B.N.t.w.6.:.:.-.*.$.I L Z Z V C j j f f i i t 1 3 a                 ",
"                R.W.W.U.U.U.F.C.B.B.N.r.9.9.9.9.;.*.P P L S C C C C g f f i i 3 3                   ",
"                T.R.R.R.H.H.H.C.V.B.N.t.9.0.6.6.-.-.$.I P L Z G G C j f g h u 3 t                   ",
"                J.H.H.H.H.H.F.C.V.B.t.r.w.9.:.6.:.:.$.I I L L P G Z C g C g i i i                   ",
"                J.G.G.H.G.F.S.C.V.V.N.t.w.9.6.6.;.;.*.$.$.P P L G G G C C g i f h                   ",
"                  F.F.F.S.S.C.V.V.B.N.M.w.9.0.:.-.-.*.$.P P L L G G G C C j g h                     ",
"                  C.Z.C.C.C.C.B.B.B.B.t.r.0.7.6.:.-.&.$.#.L L L G Z Z C G C j l                     ",
"                  B.B.V.B.B.V.B.B.B.B.M.r.w.0.6.6.-.&.$.P P L G Z Z G C Z C C F                     ",
"                  M.M.M.N.t.N.M.M.M.M.t.r.w.7.6.;.-.$.$.P P P D Z Z Z Z Z C j                       ",
"                    t.r.w.r.r.t.M.e.e.w.w.7.6.:.;.-.$.$.P P P L Z Z L Z C j j                       ",
"                    y.w.0.w.w.e.e.w.0.7.7.6.:.-.&.&.%.%.#.#.P D S Z Z Z C C                         ",
"                    y.0.0.0.7.w.w.7.7.7.6.:.-.&.&.%.$.$.$.#.P U S Z Z C C A                         ",
"                      0.7.7.7.w.7.6.6.6.;.-.%.%.%.$.$.$.$.P D S Z Z Z C j                           ",
"                      q.7.7.6.6.6.;.&.&.%.%.$.$.#.#.$.$.#.P S S Z V C A                             ",
"                        8.8.;.&.&.&.&.&.%.#.#.#.#.#.#.#.D D Z S C C C                               ",
"                          >.&.%.%.%.%.#.#.D D D #.D D D D S Z C C V                                 ",
"                            &.#.P #.D P D S D D S S S S S Z Z C j                                   ",
"                                U S S S Z S S D V V Z V C Z V l                                     ",
"                                      H V V V V V V V V g V                                         ",
"                                          h h V V g g                                               "
};
