/* XPM */
static char *out[] = {
/* columns rows colors chars-per-pixel */
"50 50 232 2 ",
"   c #030502",
".  c #0F0706",
"X  c #060A04",
"o  c #0A0D06",
"O  c #070C09",
"+  c #0B0E09",
"@  c #120C05",
"#  c #180803",
"$  c #120B0C",
"%  c #0D1007",
"&  c #0D110B",
"*  c #191106",
"=  c #11140D",
"-  c #19120C",
";  c #15190F",
":  c #1A1A0E",
">  c #0F1410",
",  c #131610",
"<  c #1C1512",
"1  c #161912",
"2  c #1A1C13",
"3  c #1D1E18",
"4  c #250B05",
"5  c #291C0D",
"6  c #221B15",
"7  c #241D19",
"8  c #2A1E19",
"9  c #301F17",
"0  c #1F2014",
"q  c #1E2119",
"w  c #2B230D",
"e  c #37260E",
"r  c #222216",
"t  c #2C2517",
"y  c #24251B",
"u  c #2B221C",
"i  c #2D2B1C",
"p  c #352B14",
"a  c #34251D",
"s  c #38291A",
"d  c #3C2C1C",
"f  c #3D331A",
"g  c #2E2522",
"h  c #2A2B23",
"j  c #2E2C23",
"k  c #302721",
"l  c #322B25",
"z  c #3B2C23",
"x  c #332E29",
"c  c #373426",
"v  c #3C332B",
"b  c #3D392C",
"n  c #3B3B34",
"m  c #3A3938",
"M  c #47290A",
"N  c #59270A",
"B  c #472A1A",
"V  c #44321A",
"C  c #4B3719",
"Z  c #55391A",
"A  c #642E0C",
"S  c #70370E",
"D  c #683815",
"F  c #723C14",
"G  c #412E25",
"H  c #423325",
"J  c #4A3625",
"K  c #443927",
"L  c #4D3B24",
"P  c #43352C",
"I  c #4A3629",
"U  c #4C3A2B",
"Y  c #5B3C25",
"T  c #523D2D",
"R  c #423730",
"E  c #453B33",
"W  c #4A3D33",
"Q  c #533F31",
"!  c #6B481D",
"~  c #7D4415",
"^  c #7A4A18",
"/  c #484129",
"(  c #54452B",
")  c #5A4728",
"_  c #4C4234",
"`  c #44433F",
"'  c #4E433C",
"]  c #534333",
"[  c #594631",
"{  c #504936",
"}  c #5D4934",
"|  c #53453B",
" . c #554A3E",
".. c #5C4C3B",
"X. c #5C5139",
"o. c #634727",
"O. c #7B4C20",
"+. c #6D522F",
"@. c #785429",
"#. c #614D37",
"$. c #624E3C",
"%. c #6C4D3C",
"&. c #764A37",
"*. c #64513B",
"=. c #69553C",
"-. c #6B5838",
";. c #7A5C31",
":. c #725D3D",
">. c #7A633C",
",. c #4A4644",
"<. c #554C45",
"1. c #5B4E43",
"2. c #5A5344",
"3. c #5A5752",
"4. c #624F41",
"5. c #665444",
"6. c #6E5B45",
"7. c #665649",
"8. c #655A4E",
"9. c #6C5B4B",
"0. c #715E45",
"q. c #745F48",
"w. c #665D54",
"e. c #715F51",
"r. c #6E6043",
"t. c #756246",
"y. c #74644E",
"u. c #7B664C",
"i. c #7B6848",
"p. c #6D6255",
"a. c #6D645C",
"s. c #7B6A52",
"d. c #76685A",
"f. c #756C62",
"g. c #6F716B",
"h. c #7F7363",
"j. c #814514",
"k. c #864B15",
"l. c #995B1B",
"z. c #AF5B0C",
"x. c #9C601E",
"c. c #BD6F0D",
"v. c #A6621E",
"b. c #885627",
"n. c #965B24",
"m. c #855A38",
"M. c #905D3C",
"N. c #84622B",
"B. c #9A6527",
"V. c #896839",
"C. c #986935",
"Z. c #9C7431",
"A. c #A36525",
"S. c #AC6C23",
"D. c #B46B27",
"F. c #A57421",
"G. c #AC732A",
"H. c #B97828",
"J. c #A36E34",
"K. c #B87C38",
"L. c #C27B2B",
"P. c #856B48",
"I. c #826A4C",
"U. c #8D7349",
"Y. c #98764A",
"T. c #836C51",
"R. c #85755B",
"E. c #89775A",
"W. c #947B5A",
"Q. c #AC6D48",
"!. c #A97946",
"~. c #887864",
"^. c #917C61",
"/. c #AF803C",
"(. c #BD8133",
"). c #DB8D1A",
"_. c #C8862C",
"`. c #D08A2E",
"'. c #C88935",
"]. c #CD8F38",
"[. c #CE9339",
"{. c #D39434",
"}. c #D39538",
"|. c #D7983D",
" X c #E49723",
".X c #ECAB35",
"XX c #9C875C",
"oX c #B28648",
"OX c #A78B58",
"+X c #BC8C53",
"@X c #BF9256",
"#X c #9A8365",
"$X c #98856C",
"%X c #9F8A70",
"&X c #A28C6D",
"*X c #B09871",
"=X c #BCA069",
"-X c #C89549",
";X c #D39B45",
":X c #C5985B",
">X c #D39E59",
",X c #DBA14B",
"<X c #D7A55A",
"1X c #E5AC57",
"2X c #C8A264",
"3X c #D7A866",
"4X c #DEB26A",
"5X c #C4A573",
"6X c #D6AC72",
"7X c #DAB77B",
"8X c #E3AF60",
"9X c #E8B76B",
"0X c #E6BC78",
"qX c #F4C258",
"wX c #EAC279",
"eX c #F5CF78",
"rX c #CEB189",
"tX c #E3BF88",
"yX c #ECC582",
"uX c #EBCC85",
"iX c #EBC88A",
"pX c #F5D08C",
"aX c #E5CB9B",
"sX c #F5D69A",
"dX c #D2CCB2",
"fX c #ECDBA6",
"gX c #E1D2B0",
"hX c #E0D7C5",
"jX c #ECE3CF",
"kX c #EFE6D4",
"lX c #F4EEE6",
"zX c #F8F3E8",
/* pixels */
"& & & & 2 & & & & & & + & + + & & = = : = = & O & , + & + 2 = % & & & & & & + % & & & = ; = = & & & ",
"= = o % ; = & & O , , O & & & & & & & & X X & = & , = o + ; = % & O > & + O & & % & & & &   o & & , ",
"& = 1 o X         X   O   o X X X X X 2 r 1 & & & = = , o       X   o   X X o o o o o + 1 y 1 = & & ",
"= = = & %       X & 1 < = & & = = = ; o 3 & = & , = , = % % X       & 1 , , & & & & = = o y & & = , ",
"& % & & % o X X 7 m m j 3 + + + = = 2 o q 1 ; & = & & % % & o X   o > > > + & & & & = : & 2 2 1 + = ",
"& & & % & j 2.p.~.~.f.f.a.n < > = & & % % q 2 , & & o & & & % o X : = & & > > = & = & & & o 2 2 ; = ",
"& = & & b d.y.d.e.9.4.8.8.e.7.l & & 2 0 & = & = & & = & o X o O O 1 = = = + & o & o & ; 2 & & & = + ",
", &   c R.6.y.e.7.| W W E n 1.a.E & & & & o & + 0 0 & X X X X & + O + + = , & & & & & & % % & & + 3 ",
"1 = 0 ~.T.0.q.9.7.4.| 1.E R W <.a.x & & & $ + + > 1 , > , , & & 2 2 1 2 , = & % o % & & % & & & + 2 ",
"& & / %XI.0.9...6.9.4.5.1.7.,.| 3.a.y & + + o   = & & & & > & & % & & & & & o & o X & & % + + o   , ",
"> O E.#XT.*...$.5.7.9.5.<.7.1.| ' w.w.>       O = & > O & & & &   % X           1 O & O         o = ",
"O 1 W.u.0.] U $.5.$.7.5.<.7.<.| ' 2.h.n & X O X 1 & O & > & & >               % % 1 = & & O O X   = ",
"& > i.t.] P v ..5.=.4.1.| 1.<.<._ | w.3.> O O   O & O & & + +   o o X % + + + & & & & & & O O &   & ",
"O O { } J P 2.$X0.5.4.Q | W ' W W v <.a.h & & O & o o o ; o * @ o o & % o X   o & & & & & & & &   & ",
"& & y =.=.5.R.#X5.4.Q U Q E x l g x ,.d.v X +   X & & o = = = o 2 y n ` h 3 =       O o X o o &   X ",
"& = & _ _ R.&Xy.4.$.U <.| v x l 7 3 l w.n X o = = & & % r p c rXgXkXhXlXdX= + o         X   % r e.3 ",
"O % o ; v &X^.q.1.Q Q <.E R m g 7 7 l ,.` % o & & % 6 Q @.D.>XrXlXzXkX:XM.) N.F.(.Z./.oX2X7X@XC b , ",
"% & o r R.^.y.%.4.Q P E W R x 7 g g x <.1 % & & % ; Y 4 M D.1X*XgXjX*Xb.z.c.). X X.XqXeXpXpXuX>.+ & ",
"& & + ..&XI.#.T I G G G l l g l x j <.h - o + 2 & 5 n.D.D.|.9X6XY.E.*.v.L.B.! N p w p ( OX2X#.2 ; + ",
"X o i ^.E.-.#.Q I G g u 8 8 7 7 7 ,.x   X X       % J.m.M.tXtXY.Y.V.B Y 5 X X X % o % % i p.;     X ",
"= & X.#Xq.#.Q I z z u 8 7 3 < . g ,.+ O & & 2 q r : B.4 !.fXaX5.5 5 d s   o X o = ; = X 3.g.> , i 3 ",
"% & y.W.=.[ J G 8 a g 8 < < $ 7 3.m & > & + = + = B.'.G.tXfXfX0.J H K = X + + & = % & % g.q & & + & ",
"& y ~.E.#.I d a 8 8 < < < $ > ,.m + + O & O , + ^ x.|.|.2XP.W.Z ) L f & o O + + & & & & & & & & + = ",
"  j %Xi.[ I s 8 7 < 7 $ $ $ < m O         X X b.A.l.v.}./.V C J + X + 3 O & = + X X         X X     ",
"& X.#Xt.[ U z z 8 7 6 $ . . m & = % = = = O Z N A.'.l.[.:XL C i & & , , & X o o % % = = & , & & + + ",
"& 2.E.=.[ U a z 8 < $ < $ < ,.& % % = 1 = s b.A C.-XA.>X!.-.( y & & & & & & & + & = % = 1 & > = + > ",
", c R.} I U B 9 8 7 < 8 6 7 E & & = = o.n.k.D n.:X+X;X!.+.( -.= O & > > + + + + % & % & o   X X + = ",
"= i E.=.Q I z 9 8 u 8 7 < 6 m O o C ^ j.N ~ k.<X7X5X:X+XY./ / X O X o X X X O X X o o & ; r 1 , $ & ",
"& 1 s.6.L J a z 9 8 u < - 7 m $ V F D F D ~ K.pXaXq.2X:XY.K p X     & 2 & , = & & & & = o r & & = = ",
"& & { u.} T I G z g 7 < 6 u ` 1 D M F D l.~ K.sXaXrXyX7X[ :.@.+.  o & & > & & & & & = ; & 2 1 , + = ",
"& % v E.[ Q T G z u 7 < 6 u ,.) S A k.A l.A.b.!.P.P.I.K / -.U.Y.; 1 , > > , & = & = & = % % q < , = ",
"& & 7 T.[ I J d k u 8 u 6 8 $.O.j.j.S.j.G.H.x.G.e 6 c #.t.i.: : O < & & & & & = %   % ; 0 & = = = + ",
"1 & X 2 d.=.K G H z x v k d @.~ l.k.H.k.H.`.H.A.C t b t.s.i X O & o X + + ; = @ & & & & % % o & + < ",
"1 = & =  .s.} ( T H z P W J B.v.D.H.H.l.H.}._.(.! f { E.8.1 = & 0 2 0 1 ; = + + o % & & O & = & + 2 ",
"& O & & , c E.t.T a s I U ! H.`._.'.G.G.'.{.'.,XZ.) r.h.<.& & & & & & & & = o & o   = & % & % o X , ",
"& & & & & & b y.( z J $.( @.H.`.{.].(.].,X,X-X/.Z.>.i.2.b = & =   & o X         1 & o X           , ",
"& & & & & + & = E ..*.} P @.H.{.|.;X;X,X9X9X4XY.N.U.T.{ K ; = &               O & , = & & O X X   , ",
"& O & = $ &   X X 0 2.7.2.V.B.].;X;X8XwXeXuX7X+.;.i.-.V V : = X   X X X o o & & & & & & & & O O   + ",
"O X X = o * @ X o % % = q XX=X<X<X3X4XuXuXuX5Xp i.XX+.C Z = * % % X & % o     o + = & & & & & &   , ",
"& & O 2 = &   % % & & = i yXiXiX6X6X0XwXuXwXOXd -.P.M M f = =   X % = % = 0 , X     O o O o O +     ",
"= = % 0 & o o & = 0 & & , @X0X) W.3X3X6X<X2X>.K c ; = + r & % X & , 0 = & = % %             X X % ; ",
"% & o = & % & & & & & & & / 9XV.  f C.oXK.m.6 * # @ o + : * % + & & > & & = & &     X o + o o + = + ",
"o & O = & = & & , & & & % % N.{.e % + 5 p : & + # # # M b.V.m.c = , & & & & & =   o X + % % % % & & ",
"= = X o & = ; 0 1 1 = & % o w _.v.e V 5 & + o ; + = - - 5 6 z T y ; ; & & % O & X   X + % = % % = & ",
"X o X X               X X X o ! K.K.Q.Q.o.o   X   X % X                     o X o X o & X X X   O X ",
"= o & % X X         X X X X o = r J J %.&.r ; 2 : = % % &                 o o o & 1 & o + & & = 0 2 ",
"& % & ; X O O X o & X X X & & = & > & & , O & & & & & & = + o O O X & X X O O & & = & & & & & & & & ",
"& & > & > > & & & & O & O & o & & & & & = O , & $ & & & & = & + > & & o O + & O & > & & & & + , & & ",
"      & , = % o o & = & & & o o o X X o   o           X + < > & o o X ; & & > o X o O X o X X X     ",
"o O O & q ; & + & = 1 & X o o & & = = & = & $ + O + O O + , < , = & 0 q 1 X o & > ; 1 0 = 0 , = & & "
};
