/* XPM */
static char *out[] = {
/* columns rows colors chars-per-pixel */
"50 50 204 2 ",
"   c None",
".  c #25100C",
"X  c #331611",
"o  c #391A10",
"O  c #2F241D",
"+  c #35241D",
"@  c #3B302B",
"#  c #44291D",
"$  c #4A2716",
"%  c #5A391D",
"&  c #6B3C1D",
"*  c #723B18",
"=  c #5F2E23",
"-  c #45392E",
";  c #4C3529",
":  c #523322",
">  c #553C26",
",  c #5B3B25",
"<  c #543F2C",
"1  c #5B3C2A",
"2  c #443A35",
"3  c #483C36",
"4  c #523E34",
"5  c #452921",
"6  c #613B23",
"7  c #5D422C",
"8  c #4C423D",
"9  c #544433",
"0  c #52463C",
"q  c #5B4A39",
"w  c #62442D",
"e  c #6E4A29",
"r  c #7A4C20",
"t  c #744B28",
"y  c #754D26",
"u  c #7B5428",
"i  c #614E3A",
"p  c #654B36",
"a  c #6B533C",
"s  c #6E5333",
"d  c #735533",
"f  c #795939",
"g  c #514742",
"h  c #564C45",
"j  c #594E48",
"k  c #5D5042",
"l  c #5C524A",
"z  c #5F5751",
"x  c #615345",
"c  c #695543",
"v  c #6B5944",
"b  c #60554D",
"n  c #6B5A4B",
"m  c #65574C",
"M  c #765C45",
"N  c #625750",
"B  c #645A52",
"V  c #6C5E53",
"C  c #675E59",
"Z  c #725D51",
"A  c #756249",
"S  c #7D6A4D",
"D  c #7A654C",
"F  c #6C6054",
"G  c #6C625A",
"H  c #746354",
"J  c #73665B",
"K  c #7A6B5D",
"L  c #766856",
"P  c #766B63",
"I  c #7A6E65",
"U  c #796F6A",
"Y  c #7C726A",
"T  c #854D23",
"R  c #944F20",
"E  c #8D5B26",
"W  c #865328",
"Q  c #965726",
"!  c #8D5930",
"~  c #986629",
"^  c #8E6D3B",
"/  c #956435",
"(  c #AB722D",
")  c #AB6D31",
"_  c #A87636",
"`  c #B47E33",
"'  c #B37B39",
"]  c #BA7D36",
"[  c #B16A29",
"{  c #876948",
"}  c #9B6F41",
"|  c #8E724E",
" . c #997544",
".. c #826B56",
"X. c #9B6758",
"o. c #8A7456",
"O. c #857056",
"+. c #987D56",
"@. c #A06F4F",
"#. c #A77744",
"$. c #A56B5B",
"%. c #A6725B",
"&. c #A47759",
"*. c #827267",
"=. c #82766D",
"-. c #85796D",
";. c #8E7A64",
":. c #927C64",
">. c #867B72",
",. c #8A7E75",
"<. c #A16B62",
"1. c #BB853C",
"2. c #B78139",
"3. c #C48C3A",
"4. c #C78638",
"5. c #CA953B",
"6. c #D88A2D",
"7. c #E69E3D",
"8. c #EAA53B",
"9. c #9E845A",
"0. c #AB834D",
"q. c #A88A4E",
"w. c #B28543",
"e. c #BA8E48",
"r. c #A38454",
"t. c #BD945D",
"y. c #9B8563",
"u. c #8D8177",
"i. c #8E837B",
"p. c #91857C",
"a. c #94897E",
"s. c #988D7A",
"d. c #A98B66",
"f. c #AF9667",
"g. c #B89964",
"h. c #AB9374",
"j. c #B49A78",
"k. c #CA9844",
"l. c #C59553",
"z. c #DB9C46",
"x. c #D2A246",
"c. c #CDA55E",
"v. c #D8AD50",
"b. c #EBB247",
"n. c #C0976B",
"m. c #CAA666",
"M. c #DFB368",
"N. c #C7A575",
"B. c #D2AB76",
"V. c #DBB879",
"C. c #D2A968",
"Z. c #F5C64F",
"A. c #ECCD6E",
"S. c #F4D364",
"D. c #8E8880",
"F. c #948981",
"G. c #9A8F85",
"H. c #9D9389",
"J. c #9B9285",
"K. c #A2978E",
"L. c #A5998D",
"P. c #A39281",
"I. c #B19E86",
"U. c #A59C94",
"Y. c #A99F96",
"T. c #BAA687",
"R. c #BFAA89",
"E. c #BDA788",
"W. c #ACA196",
"Q. c #ACA399",
"!. c #B1A79D",
"~. c #B6AA9F",
"^. c #B8AA97",
"/. c #B6ACA4",
"(. c #B9AFA6",
"). c #BDB3AA",
"_. c #B9B1A6",
"`. c #CDAE8C",
"'. c #CCB282",
"]. c #CDB58C",
"[. c #CDBA8E",
"{. c #D3B788",
"}. c #CCB795",
"|. c #D1BA97",
" X c #C3B9AE",
".X c #C3BBB2",
"XX c #DBC08D",
"oX c #DBC296",
"OX c #D5C39D",
"+X c #DDC59D",
"@X c #E3CC9D",
"#X c #E6CB96",
"$X c #F4DA84",
"%X c #CCC5BC",
"&X c #C4C1B6",
"*X c #D7CBBC",
"=X c #ECD6AA",
"-X c #E7D6B6",
";X c #F2DAAC",
":X c #D4CCC3",
">X c #D8CEC3",
",X c #D9D2C6",
"<X c #E8DCC4",
"1X c #F6E5C5",
/* pixels */
"                                                                                                    ",
"                                                                                                    ",
"                                                                                                    ",
"                                                                                                    ",
"                                                                                                    ",
"                                                                                                    ",
"                                                                                                    ",
"                                                                                                    ",
"                                                                                                    ",
"                                                                                                    ",
"                                                                            Y.Q.~.). X%X            ",
"                                                                      _.Y.H.>.=.>.s.L.~. X%X        ",
"                    1 >X#X  [ 4.                                    (.U.i.a.i.i.>.p.,.G.W.^./.      ",
"                  |.E.*XC.t.g.V.w.4.w.                            /.U.u.=.>.>.D.F.p.i.a.L.L.H. X    ",
"    4             `.=XN.B.{ T.<Xn.o . :                           Q.u.J J G Y u.,.F.p.>.a.L.L.W.    ",
"    4 ; g.S.Z.b.b.x.8.4.N.1X1X<X;.} M a                         J.P j B G G Y >.>.F.p.P I -.,.L.*X  ",
"    7 f c.A.v.x.1.( ] 6.] j.|.P.q @XOX                          i.N l l l F P Y D.Q.F.U l G P p.(.  ",
"      d 0.q.^       & 6 6 $ : # O T.OX;X                        F.l m C N l F P H.H./.Q.C 8 I *.-.  ",
"      9 9 o.            6 1 : # 4 E.T.|.                          N g j N B Y u.i.J.).:X  Y ,.*.I   ",
"          ).                5 X # M | d.#.                        C 2 @ g C I i.J.U._.:X    P G     ",
"                            i 4 ..w $ $ / W                         3 2 3 N G Y >.U.(.>X            ",
"                            m Z $.%.d > o.#.!                       C 3 2 h B J U F.Q.:X            ",
"                            P ;.X.w } { @Xt.$ R R ]                 G h 3 g B C G >.U.%X            ",
"                            -.h.#.w &.m.=XN.% T * R R 4.            C j h h h P >.u.H..X            ",
"                            =.OX{ o.y.B.;XoXu Q & Q Q [ )         U B g j j B Y p.>.G..X,X          ",
"                          s.`.d.{.v O.I.}.[.y E & ) ) Q ) '       N j h l B N G ,.a.K.).            ",
"                          :.A j.h.n < 7 { S t ( r 2.4.T ' _ l.I.m j h C C U G B U F.Q.).            ",
"                              :.H Z c p d + u _ ~ 1.1.` 2.1.l.| b 3 8 j C G I I P ,./.%X            ",
"                                F H H m M i c 0._ 1.3.5.` 5.k.q.x h 0 g C P =.Y =.,.Y.:X            ",
"                                  I H Z Z n v +.0.l.k.k.1.5.x.e.x V j 0 j Y ,.D.,.K.Y..X            ",
"                                  x H H H n v +.r.f.B.V.M.v.x.w.0 l N j N J >.Y U H..X              ",
"                                | 9 i H K Z H o...o.].@X#XV.c.q.- @ 0 G N l C P D._.                ",
"                                 .s 9 n H K L ..A q h.+X=X+XV.f.9 2 0 8 2 j C D.U.                  ",
"                                / u d p Z K H L S v D ].OXoXR.f.y.@ z 8 C g P                       ",
"                                  e e t w H K F n v < 9.N.g.r.f q y.I                               ",
"                                      $ $ s H V k       s e %   O 9.@X                              ",
"                                        , > D                      .$X                              ",
"                                      w 7 i                         Z.                              ",
"                                    u 7                             8.b.                            ",
"                        %.X.    ( ~ W                               5.8.                            ",
"                      <.X.X W E y                                 %.= $.                            ",
"                                                                                                    ",
"                                                                                                    ",
"                                                                                                    ",
"                                                                                                    ",
"                                                                                                    ",
"                                                                                                    ",
"                                                                                                    ",
"                                                                                                    ",
"                                                                                                    "
};
