/* XPM */
static char *out[] = {
/* columns rows colors chars-per-pixel */
"50 50 204 2 ",
"   c #030502",
".  c #060A04",
"X  c #090C06",
"o  c #070C08",
"O  c #0C0E09",
"+  c #110F07",
"@  c #120F09",
"#  c #0E110B",
"$  c #11130D",
"%  c #1A130C",
"&  c #16180F",
"*  c #18190F",
"=  c #0F1211",
"-  c #141611",
";  c #161912",
":  c #1B1C14",
">  c #1D1E18",
",  c #23190F",
"<  c #241D14",
"1  c #251E16",
"2  c #1D2017",
"3  c #1F2019",
"4  c #222117",
"5  c #2D2216",
"6  c #23231A",
"7  c #2A261D",
"8  c #2D2A1E",
"9  c #342516",
"0  c #33261B",
"q  c #342A1C",
"w  c #3C281B",
"e  c #3C2C1B",
"r  c #262721",
"t  c #2C2A23",
"y  c #2C2926",
"u  c #332D24",
"i  c #382E20",
"p  c #332F29",
"a  c #2E3026",
"s  c #323127",
"d  c #3E3324",
"f  c #34322B",
"g  c #3C352C",
"h  c #3C392E",
"j  c #3B3631",
"k  c #3D3B32",
"l  c #3D3E39",
"z  c #402D1E",
"x  c #44321E",
"c  c #423625",
"v  c #493725",
"b  c #433925",
"n  c #4B3925",
"m  c #443A2E",
"M  c #4B3E2B",
"N  c #533B24",
"B  c #563E28",
"V  c #423C33",
"C  c #493D35",
"Z  c #473E39",
"A  c #503F36",
"S  c #52412E",
"D  c #5C462C",
"F  c #444036",
"G  c #4C4335",
"H  c #43423C",
"J  c #4B453A",
"K  c #4D493E",
"L  c #564537",
"P  c #5A4731",
"I  c #524A3D",
"U  c #5B4D3B",
"Y  c #64452A",
"T  c #6C4C2E",
"R  c #734F2F",
"E  c #654D34",
"W  c #655034",
"Q  c #64523E",
"!  c #6A563D",
"~  c #755636",
"^  c #7B5937",
"/  c #464641",
"(  c #4A4943",
")  c #544D41",
"_  c #554F45",
"`  c #555145",
"'  c #5B5345",
"]  c #53524B",
"[  c #5B5449",
"{  c #5E584D",
"}  c #645541",
"|  c #665746",
" . c #635A4A",
".. c #685F4E",
"X. c #725D44",
"o. c #725E49",
"O. c #645F55",
"+. c #69604F",
"@. c #76624A",
"#. c #7B6448",
"$. c #6B6253",
"%. c #696459",
"&. c #726554",
"*. c #766757",
"=. c #706956",
"-. c #7B6A53",
";. c #746A5A",
":. c #7A6E5B",
">. c #75705D",
",. c #7C715D",
"<. c #7D7362",
"1. c #787567",
"2. c #865C35",
"3. c #84613C",
"4. c #8A613A",
"5. c #96693D",
"6. c #A06E3F",
"7. c #816646",
"8. c #826A4B",
"9. c #996D42",
"0. c #9A7349",
"q. c #9B7349",
"w. c #836C55",
"e. c #8B7353",
"r. c #82755F",
"t. c #9D7E55",
"y. c #947A58",
"u. c #A17344",
"i. c #A97A49",
"p. c #B27F49",
"a. c #847562",
"s. c #847965",
"d. c #8B7C66",
"f. c #867F69",
"g. c #8A7E6A",
"h. c #927E64",
"j. c #9F815B",
"k. c #A98557",
"l. c #A4885B",
"z. c #AC8C5F",
"x. c #B48B58",
"c. c #B39059",
"v. c #8D826C",
"b. c #93846D",
"n. c #9C8568",
"m. c #8C8473",
"M. c #8E887A",
"N. c #938573",
"B. c #948A73",
"V. c #998C74",
"C. c #948B7A",
"Z. c #9D927B",
"A. c #A88D67",
"S. c #B08E64",
"D. c #AD9165",
"F. c #B69566",
"G. c #B4956B",
"H. c #BD9B6A",
"J. c #A08F76",
"K. c #A79173",
"L. c #AE9875",
"P. c #A3987D",
"I. c #AB9B7F",
"U. c #B49B77",
"Y. c #BAA57F",
"T. c #C08E54",
"R. c #C59B64",
"E. c #C39D71",
"W. c #C1A06D",
"Q. c #CBA26B",
"!. c #CAAB77",
"~. c #D3AE71",
"^. c #8B8A81",
"/. c #9C9483",
"(. c #A49982",
"). c #AB9C82",
"_. c #A69B8B",
"`. c #AB9A8B",
"'. c #B19F87",
"]. c #AEA38C",
"[. c #B5A68A",
"{. c #BDA88C",
"}. c #ACA493",
"|. c #B3A592",
" X c #B4AA94",
".X c #B8AC96",
"XX c #BEB49A",
"oX c #B7B4A7",
"OX c #C9B18A",
"+X c #DBBA89",
"@X c #C3B59B",
"#X c #D2BC9B",
"$X c #C8BCA8",
"%X c #DCC399",
"&X c #E2C39B",
"*X c #CCC2AC",
"=X c #D8C8A9",
"-X c #D4C5B1",
";X c #DDD0B7",
":X c #E1CBAA",
">X c #E4D1AC",
",X c #E3CFB2",
"<X c #E6D4B7",
"1X c #DFD8C9",
/* pixels */
"# $ $ $ : $ O $ $ O # O . $ # O = # # # # # # # # # # $ # ; ; $ # # # # X # O # O # # # # 2 O # # # ",
"$ $ $ . . - # # O # # # . O ; O # - - - X # # & ; $ $ $ O . ; # $ O # # # X O $ - O = # $ # X # $ $ ",
"# # - : 4 O O . . . . . . . . .         . # & # # # # $ ; 7 # O . . . . O . . . .   .     . O & $ # ",
"- $ # - $ $ : - $ - - = : : - o       . # X & & $ & # $ # :   : ; - - - # & : ; #       . . # # & $ ",
"# ; 2 4 X $ - $ $ # O O # - = #   X . # X # # # # $ # 2 4 : . ; - # # # = O O - # O   X X # # # # # ",
"& ; : $ $ $ $ $ $ $ $ - = # = - & O X # # # # # $ $ ; ; & O + $ # $ $ $ - # = $ # : O o O # # # # # ",
"$ # X X & $ $ $   . O O # - - ; O O O O . # # # # # # X X $ & $ - . . o O O $ $ ; $ . O X O O # & # ",
"# # O + # O $ $ X O $ O # $ - O O O O . . X # $ - - # # # # + # $ O O # @ O $ $ # O @ # . . . O # $ ",
"- # # $ # O # # . # # # $ ; : : 6 . - - - : - : 6 ; O @ # O O # $ . O O $ $ - : : : 2 # - - : - ; 2 ",
"# . O . # o # O . X X X # # - # O . # = $ # O @ : > . O O O O O O . . O X X $ $ # # O - # - # # # # ",
"-     O = 2 6 f s : .   . . X X X   # O = O t | #.o.M $   . . O $ O -       . . . #   # # # # # O # ",
"O . O K m./.].}./.1.F a ;           - # O $ B } @.Q @.X.7 @ - O # O O O               # # # # # # # ",
"O y ;.}./.Z.Z.Z.Z.]..X[.1.k ; o .   . O = @ L v } U o.o.P c % O # O $ $ X # O O X . . . + # # # o = ",
"f m.}.(.m.1.Z.Z.v.v.B.P.]./.>.8 O + % $ @ c E.K.i c E Q E } n $ $ $ O .     X + O . X + @ + $ O o o ",
"/.(.V.v.s.s.v.B.v.>.B.Z.v.v.B.m.6 X + X : H.+X&XU.9 < 9 U Q @.4       . $ 2 ; # # + X . # $ #   O X ",
"Z.a.:.&.' =.,.v.v.1.V.B.v.+.=.M.1.$ X + ^ Q.+X+XE.q.N , 9 d 0 i X     # # $ # # ; $ + X # # 4 # $ $ ",
"Z.v.,.+.I ` +.B.Z.Z.P.V.g.&.v.f.M.r O & u.R.R.R.x.u.2.B < , < i 7     - = @ O = - # # # # # $ # # O ",
"V.,.+.' k h  .P.].I.).v.v.<.:.;.M.f $ 4 p.T.x.x.i.q.3.T v , 1 < 7 @   1 - - = O # ; = $ # # $ X # O ",
"b.$.U k a H $.XX{.P.V.g.,.{ J I O.%.# e p.p.i.i.q.9.2.~ B w % , , @ y w m p _ - - # ; O X # X . $ $ ",
"L.,.K h K : s XX[.v.s.,. .G k p l l . x 5.6.6.u.5.2.! ~ B z < @ = O A w.h.$X$X_....           O $ . ",
"b.v. .m H 6 %.XXP.s.s.,.) C f f ( $   d ^ 2.2.4.^ T Y N v 9 % . <..X}.'.,X .1X}._.^.        # # O $ ",
"h  .K m J C.$X XZ.s.,.' K g g / > # X 1 Y T R Y N N z z < q C C #..X/.*.'.'.N.%.e.Z.; o X # ; # O O ",
"# - t F %. X=XP.b.r.+.G J f p ( # # = - 9 e z z z 9 9 % | J.b.:.o.| L Z C A m X.k.c.D.M # $ # # O O ",
". . O # ; %.*XP.b.s. .I K r p ] 3 # # - B C + % , v O.%.:.I d q 0 5 y Z _ [ G L e.t.H.~.j.h $ # .   ",
"O O O $ $ j $XP.v.&.` I V s F K / - @ f r  .<.;. .' U B ! S u f u m q . X O ; : : b -.K.%X+XQ # O O ",
"= # # $ : f  XK.a.&.' J C k h K p r ; > $ j g J U M 7.F.W.OX).<.` 7 $ # + O # # # # # & s.=X%Xd.A t ",
". $ $ O $ - >.].v.,...' ` ) ) J j ( Z _ t ' U G o.y.t.z.!.:X<X,X` # # O X # # # # # # # a {.#X{.A : ",
"$ $ : t 2 O 6 B.J.d.$.$.' [ { ) ] f y y i ' @.-.! e.H.E.!.%X<X>XL.# # # # X . . O O # ; oXk 8 6 : @ ",
"$ $ # * * X 2 K Z.s.%.' | ) J _ ) j f j i -.U e.A.7.k.H.!.%X,X#Xw.$ $ # ;.M.3 = X   o l 2 ; # $ - = ",
"$ ; ; * # $ $ & V s.s.$.{ ' V J J F I J 7 b.h.-.D.F.z.H.H.OX*XU.7 $ # < `.k 3 ; # X     . # # # # @ ",
"# : 2 : # # $ ; # 6 $.;.' ' J V g ) ' V p V.n.n.7.S.l.t.F.I.@X-.- $ $ A.a.= # = # # . O X # X $ O O ",
"; $ + O $ $ # # O O : j [ ' { [ [ { K 7 $ -.K.G.l.l.0.#.! b.|.G @ O Q h.y = $ $ $ 2 X . X O # O $ $ ",
"O O . $ # # # ; O # .   . O : O : r $ X < ! L.U.y.7.W n q N.|.f - U D.7 . . . @ O   O o O O O $ - O ",
"- # # # # O # # O X # $ $ : - 6 6 7 * 5 x n @.8.Y P S d 6 K $Xf G c.M # @ $ - : > 1 < $ $ - : # ; 6 ",
"$ O $ X O # # O . O O # $ $ : $ : m d q q e d b 5 2 $ $ O l ;X|.Y.b O O O $ $ - = # $ $ # # # # = # ",
"$             . .       X O $ $ $ G t # $ # O # # : .     l -X.X4   .   . . O O # # . $ # - $ O o O ",
"$   . o o = - = $ -             . 4 M + = o # # O 3 .   . _ M.k $ # ; O               @ O O O # # = ",
"O O O O O O O # @ O O . X X .     . D b > 2 ; # # = o O o O # O # # O O . . O .       @ # = ; # O O ",
"O O O O O O = # - $ . . . . O   . + % 4 g y t ; # O O O O = O O # - $ @ . . . . X . X % @ . . O $ O ",
". O O O O O O O     . @ * $ $ # X X $ + < $ O X . o . O O O O = O .   . O @ - @ # O X X @ $ > . . . ",
"                  X X $ $ $ # - # X X # & 4 $ & $ .                   X # $ # # ; # # . X # 8 X : $ ",
"$ O O O . .       O X $ # O $ $ # # # # # & # & # $ # X X X . .     . # # $ # # & # # X # # 2 X $ # ",
"# # X + X O O .   O $ $ $ # $ $ $ # # # # # $ # # X # O + O O X . . . # $ # # # # ; # # # # # O O O ",
"+ # # O $ O + X O . O $ # # O # $ # # # & . # # # # + # O # O O X # . # # # $ O # $ $ # # $ # . O $ ",
"O O . . O . . .   $ O . . O X . X X .       . $ X X #   o o . . X   O . O . . X X   O O .     . @ O ",
"O O . O # X X $ $ O . .                   $ X $ + # X   # # . @ $ & # . .                   # X O $ ",
"- : O # # O # $ $ $ O o X   . . . o . X O $ $ X # $ : O # # O O $ $ $ O O O . . o . o o . O $ # O O ",
"# - # # # # # = # # # o o X o # # o # # # + # # # # # $ O O O O $ # # O X o . o O O # o # # $ $ O O ",
"O o O # = # $ # O O O O O # X # # # # $ $ $ # O O O X O = O = @ # = @ O # O O # # # # # # - - O O O ",
"O O O - - $ $ O O O O O O > 2 = # ; $ 4 $ O . . . o X O @ = O O O . . . o O # ; ; O # # > ; O . . . "
};
