/* XPM */
static char *out[] = {
/* columns rows colors chars-per-pixel */
"50 50 206 2 ",
"   c #020501",
".  c #060A04",
"X  c #0A0D06",
"o  c #070C09",
"O  c #0B0E09",
"+  c #100F07",
"@  c #110F09",
"#  c #0C1006",
"$  c #0D110B",
"%  c #141107",
"&  c #11140D",
"*  c #1A140B",
"=  c #16190F",
"-  c #181A0F",
";  c #0F1311",
":  c #141610",
">  c #161912",
",  c #1A1C13",
"<  c #1C1E18",
"1  c #231A0E",
"2  c #251D13",
"3  c #281D12",
"4  c #1E2015",
"5  c #1E211A",
"6  c #232215",
"7  c #2E2314",
"8  c #24241A",
"9  c #2A261C",
"0  c #26291F",
"q  c #2B291D",
"w  c #332515",
"e  c #372916",
"r  c #33261B",
"t  c #342B1D",
"y  c #3B2C1B",
"u  c #3E331F",
"i  c #2C2A23",
"p  c #292924",
"a  c #332E24",
"s  c #382E20",
"d  c #322F29",
"f  c #2E3025",
"g  c #323126",
"h  c #3C3424",
"j  c #34332B",
"k  c #3A362C",
"l  c #3C3A2D",
"z  c #3D3C32",
"x  c #402E1C",
"c  c #43331D",
"v  c #403524",
"b  c #4A3720",
"n  c #443A25",
"m  c #4C3922",
"M  c #443B2C",
"N  c #533C23",
"B  c #5A3D22",
"V  c #423D32",
"C  c #493D35",
"Z  c #413D39",
"A  c #3D4034",
"S  c #4C402A",
"D  c #51412D",
"F  c #5A472C",
"G  c #444135",
"H  c #4B4335",
"J  c #45443C",
"K  c #4B4539",
"L  c #47493E",
"P  c #4D493D",
"I  c #534635",
"U  c #544636",
"Y  c #5B4B35",
"T  c #524B3E",
"R  c #5A4D3B",
"E  c #5B5139",
"W  c #614426",
"Q  c #644629",
"!  c #6B4C2D",
"~  c #72502D",
"^  c #684E34",
"/  c #655439",
"(  c #64533E",
")  c #6B593D",
"_  c #745837",
"`  c #474740",
"'  c #4A4943",
"]  c #544E42",
"[  c #584F40",
"{  c #545144",
"}  c #5B5344",
"|  c #5F5847",
" . c #56524A",
".. c #595548",
"X. c #5E594C",
"o. c #645541",
"O. c #645846",
"+. c #625B4A",
"@. c #695F4E",
"#. c #715E42",
"$. c #715F48",
"%. c #625F55",
"&. c #69604E",
"*. c #756249",
"=. c #7B6749",
"-. c #79654B",
";. c #656355",
":. c #6C6351",
">. c #6F6956",
",. c #6B675B",
"<. c #716754",
"1. c #726A56",
"2. c #796B53",
"3. c #70665D",
"4. c #736B5A",
"5. c #796E5A",
"6. c #74705C",
"7. c #7C725D",
"8. c #7B7462",
"9. c #787565",
"0. c #855D34",
"q. c #876139",
"w. c #956A3C",
"e. c #A06E3C",
"r. c #816B49",
"t. c #986D40",
"y. c #8C734E",
"u. c #9B7448",
"i. c #836A58",
"p. c #887353",
"a. c #82765F",
"s. c #967B56",
"d. c #AB7C47",
"f. c #A67A4A",
"g. c #B07F49",
"h. c #837661",
"j. c #847A65",
"k. c #8B7D66",
"l. c #8A7E6A",
"z. c #9F865A",
"x. c #B38047",
"c. c #A98858",
"v. c #AC8D5D",
"b. c #B48B57",
"n. c #8D826B",
"m. c #9B8567",
"M. c #93856C",
"N. c #8C8673",
"B. c #8B8979",
"V. c #918674",
"C. c #958A72",
"Z. c #9A8E75",
"A. c #948C79",
"S. c #968A7C",
"D. c #9C927B",
"F. c #A78D65",
"G. c #AC9264",
"H. c #A5936F",
"J. c #B69766",
"K. c #B3966A",
"L. c #BE9C6A",
"P. c #A08F74",
"I. c #A49274",
"U. c #A3967C",
"Y. c #A4987D",
"T. c #AC9A79",
"R. c #B49C75",
"E. c #B8A67D",
"W. c #C08E55",
"Q. c #C49C64",
"!. c #C19E6E",
"~. c #C59E71",
"^. c #CAA36A",
"/. c #D1AF6F",
"(. c #CAAB76",
"). c #9D9682",
"_. c #A59A83",
"`. c #AB9C84",
"'. c #B09F87",
"]. c #AEA286",
"[. c #ACA48D",
"{. c #B4A78B",
"}. c #B9A689",
"|. c #ADA394",
" X c #AFA891",
".X c #B5A995",
"XX c #B4AA94",
"oX c #B9AD91",
"OX c #BDB599",
"+X c #B7B5A5",
"@X c #C8B289",
"#X c #DAB985",
"$X c #DBBC8B",
"%X c #C8B99C",
"&X c #D4BE96",
"*X c #C3BBA6",
"=X c #CBBFAD",
"-X c #DAC398",
";X c #E2C49A",
":X c #CBC3AB",
">X c #D7C9A9",
",X c #D3C5B0",
"<X c #DDD1B7",
"1X c #E4D1AB",
"2X c #E5D4B5",
"3X c #DEDAC8",
/* pixels */
"$ $ & $ - $ $ $ ; o $ # # # O $ $ $ : > & & & $ $ $ $ $ & $ & $ O $ $ $ ; o O $ $ $ $ $ & 4 $ & & O ",
": & & X O = & $ $ : : o O $ $ O # $ $ >   X & & : : & $ $ X > & & O $ > $ . $ O $ O $ $ & . . & & & ",
"& & > X       .       O o . X . . . X $ q - & $ O $ & ; $ .       . . . . o . . o . . X X 6 4 & $ O ",
"$ & & $ #         $ > > : $ : : : > ,   , $ $ & > & $ * $ # .       o ; , > & & : : : , & $ & $ & = ",
"$ # $ $ $ o o   O $ ; $ ; O $ O $ & > . - 6 < & & $ $ $ $ $ X o X   & : : $ O O O $ & > & O 6 4 & O ",
"$ $ & X # # # . , : $ ; $ ; & & : $ & $ X - > > & $ # $ # $ # X O > & $ $ ; ; & & & $ $ & $ & , , > ",
"$ = # $ o O # o & * : & $ O X . . : & - & X # $ $ $ $ $ # X # # O X > > : $ $ X .   & & = & # X $ $ ",
"& O X . . . $ # X O & & & O # $ O $ O O $ $ $ O > > : O X . o o O O X & & O @ $ $ X & & # X # # $ & ",
"2 : ; , : : O 4 4 , , > & O O X X $ & O $ & & X > 2 , : > : : & X 6 , < > = & O # o $ ; $ # $ $ $ & ",
"$ $ $ $ ; # & O $ $ & $ O O O . . $ O O O X X . , , & O & & $ O . # $ $ $ $ $ . o   # $ # # o # X $ ",
"; $ $ $ & $ $ . O . . .       = O @ X .   . % C *.-.o.q O : $ ;   X o . . .     , f j 5 5 : #     & ",
"o $ $ ; O $ $               # O $ O O = O 8 #.*.( *.o.D ; O $ $         . > a V 9.).[.).D.N.` $ . $ ",
"O o $ $ O O . . . . X X $ X @ : O O O @ h U *.$.R o.n R $ O O X . . o , A 9. XXX].D.Y.D.D.).[.,.p # ",
"O O . = X % % X . X X X   . . X : & = M ) ^ ( Y x y H.^.h & & * X # q 4.D.[.Y.C.n.N.D.D.j.N._.[.N.j ",
"o # o $ & # . X O & O > 2 & .     . 3 *.( Y w 3 r R.;X$XL.4 X X o 8 N.C.M.n.D.n.6.n.C.n.j.8.n.Z._.).",
"$ & O 8 $ # . $ = > $ $ & $ X .   # t r s w 1 m u.~.#X#X^._ $ X & 9.B.>.&.n.C.A.n.n.n.8.<.} <.5.7.D.",
"# $ # & $ $ $ $ $ : O ; & @ @     7 s 2 1 2 N 0.u.b.!.Q.Q.f.= X p B.l.N.<.n.Z.U.D.D.C.&.[ T @.a.l._.",
"# # o & & & & $ > ; o ; $ > 6 . O 9 3 2 2 m ~ 0.u.f.g.b.W.g.2 * j B.1.5.7.n.M.`.T.].Y.X.l z { +.5.C.",
"$ $ . X # X # & $ : : { g M y r O , * * y F _ 0.t.u.f.g.x.d.t $ ;.%.' K | 5.l.C.Y.oXOX;.J a V { >.M.",
"X & o           . &.|.+X=Xs.i.C O @ * 2 y B ^ _ q.t.t.t.e.w.c   z Z a z K +.7.j.n.{.OXg > L l I a.U.",
"$ $ $ $       . ).).|.3XO.1X}.|..X9.  % e c m Q ! 0.0.0.0.0.y   : ' j j V R 7.a.j.Y.%X;.0 J l O.n.m.",
"# $ $ & # # # ; A.p.,.B.'.'.<.)..X-.C C q w y c b B ! ~ ! W 6 o o < ` k k T } 7.a.U.oXOXA.H z P O.k ",
"O O ; $ $ & M v.b.c.#.M C C C T o.$.i.V.P.+.* w w x x x y e = $ O : ' d j K G &.j.n.Y.>X X;.A f > $ ",
". . O & l z./.J.c.p.U K .. .V t 3 a a h U 7.3.X.v 1 * + C C = & O 8  .d i K T O.k.M.Y.:X;.4 $ O . . ",
"X X @ O.$X$XI.2.n , , : O . . t M g h t S ( D R ( O.4.8.O.9 k $ $ ` L C d z P { 1.n.Y.*Xl & $ $ O O ",
"d C l.&X>Xj.= & $ $ $ $ O O # & 9 { 8.].@X^.J.r.C R K k k : < > p d P k z C K } 1.a.I. Xj , $ $ $ O ",
", C @X%XoXi O $ O $ $ O O X $ # $ { 2X2X>X(.v.s.s.#.H R [ i ] J ' z K ] ] { } @.7.n.].6.> & $ & & X ",
"@ > 2 p G +X, O O X . . X & $ $ % T.1X2X>X/.!.L.y./ =.<.} a p p j ] ] X. .} :.:.k.Z.C.8 # 4 0 4 & & ",
"$ & ; $ - 4 z O   o & 5 S.3.$ $ $ r.-X<X-X(.Q.c.r.G.p.Y 2.a k k k ' ..K ] +.} <.h.D.P , # , - # $ : ",
"$ & $ # # .     o $ : 5 k `.< $ & q T.%X@XL.L.F.J.G.=.n.M.q C ] C K H V } +.@.j.j.G - & & # , & > O ",
"$ # $ $ # # #   & & ; O ; h.F.$ & & 2.OXR.K.s.c.G.r.m.m.C.d M ..] l V K } } 1.;.5 & : $ $ $ 1 < > & ",
"$ & # # o o # o , : $ & @ p m.E # $ P XXM.^ =.u.s.c.K.H.2.= 9 L X. ...X.} ..l , $ X $ $ & & X O > > ",
"# $ & & $ X o O   X O . . . 7 F.Y & j  XM.t n ^ r.s.K.T.o.6 % $ q , $ - @ .   . O X > $ $ # # O X X ",
"0 > & > $ : $ 6 8 , , > * O & M v.H j :XP 8 h D F ^ =.*.n c 7 * 0 8 4 > > : * O O X $ & $ $ & $ $ : ",
"$ $ $ & $ $ & & $ & - & O X X X M E..X<XA O $ & 4 6 n u y e t h M - & , : & O X X . O $ O $ X $ O $ ",
"; O # $ $ $ $ . & $ $ $ X .   .   < OX,Xz     . , $ O X $ & $ i H & & $ O X .     .               & ",
"o ; $ $ $ $ &               . > : : z N.' o   . 5 O O O O ; $ n 6 .             > & : $ $ o o   . & ",
"O O $ > ; O X .     . . . . O O O O O O O O O . : O ; : , < n F .     . . o . X $ $ O $ O O O O O O ",
"$ ; o   . O * X   o X .   . & : : $ $ $ : O O O O O : d i h 2 = X . . X . . . X & : ; $ $ $ $ $ $ O ",
"  . . 6 & % . . X & @ = @ O     X O O o O O O . O o . o = < # % X . % & # - O X     O O # o O o O . ",
"- = # q $ o . # $ - $ $ & # o                 . o & , & 8 > # X O # > $ $ & $ O .                 . ",
"# $ # = $ # # $ & & $ $ & $ # o   . . . X X X $ & $ $ & & $ $ X $ $ > $ # & $ O X     . . X X X # $ ",
"# O o & $ $ # & & $ $ $ $ & $ . . . X X X O X $ X # O & # $ $ $ $ & $ $ $ & & & X . . X X O X X $ $ ",
"$ $ # & & $ # & & $ $ & & $ # . $ $ % X O O $ # $ $ $ $ . , $ $ $ & $ $ $ O & O . O . X O & @ X # $ ",
"X $ .     . o o . X X o . X . #   . o . X .   O X . & .         X . X o X . . X &   . . X . . . o O ",
"& # X #                   . . $ > & # X O & . O # # & X O                   . . # & & $ X $ $ X # O ",
"$ O $ & o o   o   o .   o X O & & $ O o O $ . > & & # & : . o o o .   #   o O O $ & $ $ # o # X , & ",
"O $ ; & $ o $ $ $ # . . o O O $ ; $ # $ $ O > $ O @ O O O & O O o $ # o . o O # $ $ ; $ $ $ O $ : O ",
"X O @ : : @ O O $ # $ # o $ # $ $ $ $ $ $ $ O X o O O & & & : ; $ $ & o $ o $ $ $ $ ; $ $ ; $ O O O ",
". . . O : < & $ X : , $ o o . o X O O X > $ O X o o     X ; 3 & > # $ 5 4 o o . . # # $ $ > > $ O O "
};
