/* XPM */
static char *out[] = {
/* columns rows colors chars-per-pixel */
"50 50 235 2 ",
"   c #030502",
".  c #090706",
"X  c #060905",
"o  c #090C06",
"O  c #070B09",
"+  c #0C0E0A",
"@  c #120B06",
"#  c #190804",
"$  c #120C0B",
"%  c #0D1007",
"&  c #0E110B",
"*  c #11130D",
"=  c #18140B",
"-  c #19110C",
";  c #1C190D",
":  c #0F1211",
">  c #141611",
",  c #1C1513",
"<  c #161912",
"1  c #1A1B14",
"2  c #1F1718",
"3  c #1D1E18",
"4  c #260B07",
"5  c #231C0F",
"6  c #2B1B0D",
"7  c #221B16",
"8  c #2A1C14",
"9  c #251D1A",
"0  c #2B1E1A",
"q  c #301F18",
"w  c #1E211A",
"e  c #2C220E",
"r  c #3A260F",
"t  c #232116",
"y  c #24231A",
"u  c #2B221D",
"i  c #2C2A1D",
"p  c #362815",
"a  c #33241C",
"s  c #3A271E",
"d  c #3B2B1D",
"f  c #3B3219",
"g  c #2D2421",
"h  c #2A2A22",
"j  c #302722",
"k  c #322A25",
"l  c #3B2C24",
"z  c #332E29",
"x  c #392F2A",
"c  c #383326",
"v  c #3C342A",
"b  c #3E392E",
"n  c #3B3735",
"m  c #3C3A35",
"M  c #49280C",
"N  c #59250D",
"B  c #492919",
"V  c #493214",
"C  c #43321D",
"Z  c #4A331C",
"A  c #543619",
"S  c #632C0B",
"D  c #6C3311",
"F  c #6A3816",
"G  c #733C15",
"H  c #412E23",
"J  c #412E29",
"K  c #433226",
"L  c #4A3625",
"P  c #433827",
"I  c #4D3C24",
"U  c #44342B",
"Y  c #4A362A",
"T  c #473829",
"R  c #4D3B2C",
"E  c #5C3B26",
"W  c #523D2E",
"Q  c #413834",
"!  c #453B34",
"~  c #4A3D33",
"^  c #533F31",
"/  c #6D471D",
"(  c #7E4314",
")  c #794519",
"_  c #5B4726",
"`  c #54442C",
"'  c #5B452C",
"]  c #4C4235",
"[  c #42403E",
"{  c #4D423B",
"}  c #544234",
"|  c #594533",
" . c #554930",
".. c #504837",
"X. c #5D4934",
"o. c #53443C",
"O. c #564A3E",
"+. c #5C4C3C",
"@. c #664421",
"#. c #7D4B21",
"$. c #79532B",
"%. c #654B35",
"&. c #624E3C",
"*. c #764A3A",
"=. c #6D5332",
"-. c #63503C",
";. c #69543D",
":. c #6A583B",
">. c #775D39",
",. c #7D623C",
"<. c #4B4543",
"1. c #4A4843",
"2. c #564A41",
"3. c #5B4D44",
"4. c #554E49",
"5. c #545044",
"6. c #5A5243",
"7. c #5B5752",
"8. c #614E41",
"9. c #655344",
"0. c #695645",
"q. c #6D5B42",
"w. c #63564C",
"e. c #665A4C",
"r. c #6C5B4A",
"t. c #715C45",
"y. c #765F48",
"u. c #675B53",
"i. c #665C52",
"p. c #715E51",
"a. c #75644C",
"s. c #7A6649",
"d. c #7B654D",
"f. c #6C6258",
"g. c #756352",
"h. c #786656",
"j. c #7C6A52",
"k. c #71655B",
"l. c #776C62",
"z. c #7F7264",
"x. c #70716D",
"c. c #824415",
"v. c #854917",
"b. c #995A1C",
"n. c #B15C0E",
"m. c #B56917",
"M. c #8A5627",
"N. c #985B24",
"B. c #855937",
"V. c #925C3E",
"C. c #A65F24",
"Z. c #9A6227",
"A. c #866538",
"S. c #956D30",
"D. c #9A6935",
"F. c #A76725",
"G. c #B56E26",
"H. c #A77322",
"J. c #AC732C",
"K. c #B7752A",
"L. c #BC7C2A",
"P. c #A46D36",
"I. c #B77C39",
"U. c #C47B2B",
"Y. c #816743",
"T. c #826A4D",
"R. c #8A6E4D",
"E. c #8D724A",
"W. c #99754B",
"Q. c #836B52",
"!. c #84735A",
"~. c #8B775A",
"^. c #8A765C",
"/. c #977753",
"(. c #937D5F",
"). c #A77746",
"_. c #AE724A",
"`. c #847465",
"'. c #8B7A61",
"]. c #927C62",
"[. c #BD8134",
"{. c #DB8C1C",
"}. c #C9872E",
"|. c #CF8C31",
" X c #C88835",
".X c #CD8E3A",
"XX c #D59538",
"oX c #D4953A",
"OX c #E59724",
"+X c #E8A22B",
"@X c #9D885E",
"#X c #B3854A",
"$X c #A5885A",
"%X c #BE8D53",
"&X c #998469",
"*X c #9F8970",
"=X c #A48C6D",
"-X c #B99E6D",
";X c #C7924B",
":X c #D59946",
">X c #CB9855",
",X c #C4945D",
"<X c #D59D5A",
"1X c #DEA24C",
"2X c #D9A659",
"3X c #C19862",
"4X c #C29F72",
"5X c #C9A166",
"6X c #D4A263",
"7X c #DAA969",
"8X c #D6AB73",
"9X c #D4AC71",
"0X c #DAB67C",
"qX c #E4AF61",
"wX c #EAB76C",
"eX c #E6BA76",
"rX c #F3C15A",
"tX c #EAC179",
"yX c #F7CE7A",
"uX c #C9A58C",
"iX c #D2B68B",
"pX c #E4BE89",
"aX c #EDC483",
"sX c #ECCB85",
"dX c #EAC788",
"fX c #F6CF8E",
"gX c #E9CA99",
"hX c #F6D69A",
"jX c #D4CCB4",
"kX c #E2CDA2",
"lX c #EEDAA7",
"zX c #E1D6C3",
"xX c #F0E6D4",
"cX c #F5EEE4",
"vX c #FCF5F0",
/* pixels */
"+ & & * > < > & & & + & % & & & & & & & 1 % & & & & & & > > < > & & & & o & + & + + & & & 1 % * & & ",
"> $ * O X + & & & + & o + o > & + & & : > % % * > & & & X X & & * + & & & & o * > + & & & < % % * * ",
"& & > < y < + o X o X X X X X X X X X   X X < * * & & * < y 1 X O o X X o X X X X X X X X   o < * * ",
"> & : & y o < & * & > & * < < &         o & * > & > & * & 1 + < * & * > & * < 1 &       X X % * * * ",
"* & < 1 1 & ; * * & & : & & : : o   X o & % & % & * % < 1 y o 1 * & & + : 3 k n n y o X X & & & & & ",
"* < 1 1 o * & & * & * & > : & > < X X & & & & & & & < 1 1 + & & & > * 1 n f.l.`.`.z.k.6.k & % & & & ",
"+ * & * * 1 < * o + + + & & & > < o + & o % & & & & * & * & 1 ; & & k w.u.u.u.8.u.p.h.g.h.m & & & & ",
"3 + & % % o & & & & * * * : & + o & +     X X & 1 1 & & o & & & * ! k.3.! ! ~ ! o.0.p.p.q.!.v X + < ",
"< + + * & % & & % X & & & < < 1 1 1 & & > < > > < 1 + + * * o & k f.4.~ ! ! 3.^ 3.0.0.a.y.Q.'.1 * < ",
"< X o o + + + & X X & % & & & * + & & & : & + + & * X O o + & g l.w.{ <.w.3.w.8.r.r.+.y.t.Q.=X] & & ",
"> X       X O + & 1           X *   > + & + + + + > O       * f.u.<.<.3.w.3.0.r.r.0.+.+.-.Q.].^.+ + ",
"* X X . + & & < & o &               & & + : * + + < O . X & m l.3.~ 2.2.w.2.9.0.&.9.&.^ } t.d.].< & ",
"+   + O + & + + & & & + & + o o X X X o + + + O + +   + + < 7.i.o.~ 2.2.3.o.3.&.9.9.X.K T o.t.d.: & ",
"+ X & + * & & & & + X X . o & & o X @ - + ; o X + :   * & y f.4.n ~ ~ { ~ o.} 8.9.r.&X0.U K %.... O ",
". X O o O X X o       * 1 h 1.m i t o = * * O & + X X O O n l.<.k j k x ~ 2.~ } 8.0.'.`.0.;.;.y : & ",
"3 u.q o X X         o & * jXcXzXxXjXiXi p t + & & > & X X n i.g 7 9 j k Q ~ O.Y +.9.g.=X!.} ] & * * ",
"* Q C 5X0X5X#XP.H.[.H.M.%.A.%XxXvXvXuX2XC.M.W 7 $ . % o o { 1.z 9 9 g Q Q ! ^ 2.^ +.p.].&Xv < X & & ",
"% % Y.sXhXfXyXrX+X+XOX{.m.n.#.-XxXjX4X1XU.B 4 E > + & & & < 4.z k g 9 x Q ~ ! Y ^ 8.8.y.&X!.t O + + ",
"% < ;  .5X$X` p p p A / F.U.C.&././.8XwXoXG.G.N.8 o , o + > y 4.z x k g k g J J J Y W -.T.=X+.o & & ",
"X X X < a.i & & X & . . . 6 @.B B./.^.pXpXV.B.P.+ . X X   . X z <.2 9 2 9 g 0 j J J ^ %.:.!.@Xi + o ",
"3 i < * x.7.O & < & % X X X i d 8 8 ;.kXlX_.4 Z.; w y 1 & + O + [ g $ , 7 7 0 g H l Y ^ %.y.&X+.& & ",
"% & & & > x.& : & * & & O   * T H L :.lXlXdXJ. XZ.* + + + & & & n 7.2 : 2 2 9 u j q H H | ;.(.g.* + ",
"* O * & & & + + & & O & + + + f W ' Z @XY.5X:X.XF.) + < O & + + : [ <.$ $ $ 2 , 8 0 a s R %.^.'.y & ",
"    X X X       X   & & * + < + . o P I V [.XXG.b.F.M.. X X       . [ 2 $ $ $ 7 7 7 q l L | d.*Xk   ",
"O + + + < + < + & o o o X & > < % % i I I ;XoXN.[.F.N A $ * * * * & * m + @ $ 7 7 8 s l Y | a.&X+.& ",
": > > : & < * * & & & % & & & & & % i I t.W.<XZ.;XP.S M.d = < * & & & 1., $ - - , 0 l s R | ;.^.6.* ",
"+ . . X X X * + & & & & & + * + & & < =.` *._.1X%X,XN.D v.M.@.* & & + [ 9 9 9 , 9 0 a H R Y %.!.v * ",
"* > > < t , + o X X X X X X X o X X X P ] W.%X>X4XiX6Xv.( S v.) Z + X n 7 - 7 u 0 0 0 B Y ^ ;.^.i * ",
"* & * : t + * + & & > & > > 1 &     X p b W.,X3Xy.gXhX[.c.G D D F K & m 9 $ 7 u 9 0 l s T I t.j.< * ",
"* + < 1 1 & < * > & & & & & : & O   :.$.>.X.0XdXiXkXhX[.G N.F ( N F < <.g , , 9 j l H Y R | s...& & ",
"* * 1 1 o & * * & & & : : : & > < = W.E.=.R P T.T.R.).M.C.N.D c.D F E <.g 7 , 7 0 H H W } | ~.b % & ",
"* * * * & 1 ; + O & & & & & & > 1 X ; ; s.a.&.l 6 q J.b.K.G.c.F.c.c.#.&.0 2 j u 0 j s Y I | j.t & * ",
"1 + + + % % & & & & & & * & & X O * o X j j.a.P i Z Z.L.}.K.v.L.v.b.( $.d g x x l K H L ;.g.1 o + < ",
"< + + * & & & & & X % & * < 1 1 1 1 + * < e.^. .f @.[.|.oXL.b.K.U.G.b.D.L ] Y l K ^ W %.j.O.> * : < ",
"<   + + & % & * X X & o & $ & > & & & & > 5.z.:.-.D.:X XXX}.J.J..XU.|.L.F ~ Y l a W y.`.v > $ + + & ",
"> X         X O O 1 X     X X X &   & & > b 6.j.,.S.[.;X1X1X.X[..X|.|.L.$.} -.T d ^ g.b & & & & + : ",
": X . . + : & * * & o               & + = b } !.E.,.W.wXwXwX2X:XoXoXXXK.$.R X.-.+.! = * & & & + & + ",
"+   + O O & & & + * & + o + X   o X X & ; C C =.A.$.=.iXsXyXtXqX1X:XXXZ.A.3.9.9.1 X X X + : : & + + ",
"$ X + + & & & & * + X X X o & * o o @ = * A A =.@X,.p 9XsXsXsXwX7X2X2X-X@X7 * & & o X @ - o < X X + ",
"X   + . & O O &     X * 1 * % * o o X * > C M M s.:.f $XeXsXtX0X9X9XgXaXaXi < & * o o X @ * 1 X & o ",
"< & X               o * * & * 1 * & X % & y + * < c P >.6X6X7X9X5X@X_ wX3X* & * 1 < & o % & 3 % * = ",
"% & % % % % X X     & * * & & * & * & o = ; O + @ # = 5 B._.#XD.f o A.rX` & & & * & & % % & > o % * ",
"& & & o & % % X X X & * & * & * * * l B.V.M.M @ # @ & & = r 6 $ o e |.,.& & & & & * & & * * * X & o ",
"& * & % & % & o   . o + o & & < < y W c 8 6 ; * * % > % % * p Z M H.[.e % o & * < < 3 1 * & o X * * ",
"X o X X X X & X X O X O X                 X o o o X o X o %.V._.I.K./ + o   X                 X + o ",
"< t * & : + X & 3 * o o X         X       % & + * 1 < = y *.*.K L t * + o O           X     & & + * ",
"+ * & + + & & & & * & O O X X & O O X + X * & + & & & * o & * + & : & & % O X o o O O % O o > & & + ",
"& + < + & & & & & & % % O o o & & & : & * & * + & & % > + & & + & & & + % % O O & & & & & * & & + + ",
"        . . X O O o + * & + < & o o % * < + X         . . X O X O O X + & + & > & % o & & > + o     ",
"+ > > > 3 < 1 , < * & o o < w < & & < 1 < + X . + + O $ & : * * $ * + + o o & < * + & & < 1 & + . o "
};
