/* XPM */
static char *out[] = {
/* columns rows colors chars-per-pixel */
"50 50 26 1 ",
"  c #030501",
". c #080706",
"X c #060A04",
"o c #0A0D06",
"O c #070B08",
"+ c #0B0E09",
"@ c #110E05",
"# c #0C1006",
"$ c #0D110B",
"% c #121106",
"& c #181207",
"* c #11140D",
"= c #15190E",
"- c #191A0F",
"; c #0E1210",
": c #131610",
"> c #161912",
", c #1A1C13",
"< c #1D1F18",
"1 c #201F13",
"2 c #1E2115",
"3 c #232316",
"4 c #22231A",
"5 c #29271B",
"6 c #2B2A20",
"7 c #333221",
/* pixels */
"oOO =$;$+:;+;@**=:o,1,*@*$+@*$@$OX #=$:$;+;+$$*=,#",
"#o#$,$$:**;;;:**+$*o>>,>*+o$+$$*O+o2:$;$;:;:$**$$#",
"#Oo*,*;$*+*$++o+*,3o*>::+$$*#$oooo+,>$;$+*++oo$#=2",
"OX$#Xo$++oo+++:=*$o$ooO:>:$+o+oo.o= X#O#++++$o,$$#",
"o*o=*,,:=**+oo***o+$#$:+,::;+oXOo**=,>,:=$*Xoo$*##",
"$*o,==,***@+#X$$$##*#*o:,>:;*,***#===,::$*++oX$$+#",
"#$X$+$$$#+ooo .*+++oOooo:$++$$;+$$o+$$*@@+o+o $$$+",
"$$ $$+oX X  $*oOX      $:+;++$:$$OX*+o  .   *oOO  ",
"$;         X1*<<:$$O.  *:;+;+++;$+         >=><:;;",
"$$X    XXX #++++$$O+O+XO:+++;:$$+o    XO oO@+$+$$#",
"XXXOO#$o+$+$**$++;++O;oO+++;++.+XXooOo$+++$$:+++$$",
"&&#Xoo%oo. ..+:$$$;;+++.++O+.1$%&%oX#oooX  .O:*$;$",
"#XXo##$*,<,X   o$Oo#o++..OO$.#=ooXXo$#$>3,$   .ooO",
"#Xoo=,$$$$#o.         X+$*=:.3$#ooo%,$$$*++o      ",
"#o$*=:$+$$*$o   XXXXo#$$$#+$X=$*o#$$,$$O*$$o.  XXX",
"$#$$$$+*$*:$X  .#*oo#o$$$+##.=$$o$$*$$$$****   o##",
"$=o>2;$$+*** oXooo*oo#*$#++*X:*+>#$,>$$$$$>+oo oo$",
"#$=>$=$$o#oo*oXooo$*$+$$$$*+.o*+#=,$*;$#####ooooo$",
"       XXo*ooo. XX    XX  ooX         X X+O#O  oX ",
"           .oo:*@+o++ +X$#@o+X           X Oo=*$*o",
"XXXXXXX X++O$:*++o$$;O,,:*++$#.XXXOXXX  O+O+::++X#",
"O$$OO$O OO++;$*:+*$+$#;;$+*$$>$+O$;O$OXXO++;;$:;#$",
"$;;;$#XoO+++;;$+$*$$;,:$$@+;+$*$;$$$$oOoOO+O$$;+$$",
"O$$o+#*$+$$+$++o++$$X. ...o++:::$O$#O$*O$$$++$+O##",
"2*$o$=2$o+oX  XXoO$:++o.O...O+;6>;#O>,>#+oX   Xo+X",
"*$$$$$;=OXo+$***>+,*;+:+++++O+>1#+++$$::Xo#$***#*$",
"$$$$$$$$o+$#$$*$::>:$*::;+::*o,+$#$:$O$$ooo*$$**>,",
"$$$$+$>$Xo$$#$$$*o<>:oOo+OO.XX::$$$+$,$$o$*+##$$#*",
"OXo+$OooXO$$*$++*o&4,>:+***$,XXoOO#oO+X.o+$$$$$+$#",
"      XO+o..  .o+.71*$+:$$***o       .O+o ..  X+O*",
"X   X$>>$;$*:***:*#,$$**=***@$#XX   O$>:;$$:****:o",
"o X $;$$:$+$++**$*o1,=+**$+*$$$#X  O$;$;$+$$$**$*o",
"#o#X,:;:$;**+*****#*2,:*@*+@$$$*#oX=:;::$;+:+***=#",
"oOX2,$+;:+**:*:+o=,o*,<>*+$$$$ooo#$4*$;+$;*=**$+#3",
"#O#O+**+O.o.oo*****$oO++$+$**$++#X$o$**+Oo.ooX:$*#",
" #$$O+@*>:**o+:$$$#$o**:4>:O    X>$OO@+:::=o$o**$o",
"*$#2,2>>=*$++o*$$+#$$*+:>,:::::;$O,,22::*$##oo$$$o",
"$$o$##$*@$o#$XX*+$$+++O$:*;+++$;#$##$$*$*+#*o *$$+",
"$$X#$$$O+oX. XXXXX. .  $*+;++;*;$oO*$$$ooX  XXXXX ",
"$$ XX       3,:,$+X    ::++;$:++;+         #4:>=$O",
"$$         +*+*$+$#$OO +:;+;+:$+$#        X*$$*+$$",
"$o XXXoo+#+$*++++$++O;XO++++;$$*#XXXXO#+o++$$+$+$$",
"%%oXO#*oXX O+**$$$$$+++O;+O+.oXoo%oXO##XX .o$:*$$$",
"&ooOo#*$**$X  +:*$$$+;;...X+.5-o&XXX$$$***o  .**$$",
"#X#o*=$$==*o           .O$=: 2*#oXo#:$$*=*oo      ",
"+X#$>>$$$$%oo    XXXXXo**$$$o2$$Xo$*,:$$$%$o      ",
"##$$$*$$$*=++   oo#o%o*$+#$$ =$$#$$$*$$+***+   X#$",
"$*#=:$$$$$**X  ooo$#o$=o$$o$X***=$$=$$$$*$*+ o ooo",
"$**=*$$$##$#++Xoo#$$+#$@++$$X**+**==*$$$##$+ooXo#$",
"XO++o$$$##$$*X  XXo+oX**++oo   oXooXo$$#+#$:OX  XX"
};
