/* XPM */
static char *out[] = {
/* columns rows colors chars-per-pixel */
"50 50 108 2 ",
"   c #367CE4",
".  c #397EE5",
"X  c #3E81E2",
"o  c #3D84E8",
"O  c #448DE7",
"+  c #4C8CE6",
"@  c #4087EA",
"#  c #448BED",
"$  c #498EEC",
"%  c #4790EA",
"&  c #4C93ED",
"*  c #4F99EB",
"=  c #5195ED",
"-  c #549AED",
";  c #5B9CED",
":  c #448CF1",
">  c #498FF1",
",  c #4690F4",
"<  c #4B93F3",
"1  c #4F98F6",
"2  c #4C95F8",
"3  c #4F98F8",
"4  c #5096F2",
"5  c #549BF4",
"6  c #599DF3",
"7  c #549BF8",
"8  c #5A9FF8",
"9  c #629FF1",
"0  c #5FA1EF",
"q  c #57A1F1",
"w  c #5CA3F4",
"e  c #5FA8F6",
"r  c #5DA3F9",
"t  c #62A3EF",
"y  c #6FA7EC",
"u  c #71AAED",
"i  c #62A4F4",
"p  c #64AAF5",
"a  c #6BACF5",
"s  c #62A6F9",
"d  c #64AAF9",
"f  c #6BADF9",
"g  c #74AEF4",
"h  c #78AFF5",
"j  c #71AEF9",
"k  c #6EB2F6",
"l  c #6EB1F9",
"z  c #73B4F6",
"x  c #7BB6F6",
"c  c #76B9F6",
"v  c #7CBAF7",
"b  c #73B4F9",
"n  c #79B7F9",
"m  c #76B9F9",
"M  c #7CBAF9",
"N  c #7EC1F9",
"B  c #82B7F5",
"V  c #83BCF6",
"C  c #8ABEF5",
"Z  c #80B7F8",
"A  c #82BEFA",
"S  c #88BFFA",
"D  c #91BEF3",
"F  c #86C1F6",
"G  c #8CC2F6",
"H  c #85C2F9",
"J  c #8BC3FA",
"K  c #8EC8FA",
"L  c #92C6F7",
"P  c #9BC6F3",
"I  c #95C9F7",
"U  c #9DCAF6",
"Y  c #92C6FA",
"T  c #9BC6FA",
"R  c #94C9FA",
"E  c #9BCCFA",
"W  c #9DD1FA",
"Q  c #A2CDF6",
"!  c #A1CEFA",
"~  c #ABCFF9",
"^  c #A4D1F7",
"/  c #ACD2F7",
"(  c #A5D2FA",
")  c #ACD5FA",
"_  c #AED9FB",
"`  c #B2D7F7",
"'  c #B5D9F7",
"]  c #BBDAF7",
"[  c #B1D7F9",
"{  c #B4DBFA",
"}  c #BADDFA",
"|  c #B7E0FC",
" . c #BDE1FB",
".. c #C3DFF7",
"X. c #C0DFF9",
"o. c #C3E3FA",
"O. c #CAE5FB",
"+. c #CDE9FB",
"@. c #D1E6FB",
"#. c #D4EBFB",
"$. c #DBEEFC",
"%. c #DDF1FC",
"&. c #E1EFFB",
"*. c #E4F3FC",
"=. c #EBF6FD",
"-. c #EEF8FD",
";. c #F0F7FD",
":. c #F2FAFD",
/* pixels */
"> M J R Y f e s w 3 2 7 b E Z l k z z k l b b v F v x ^ Y K z F x # # b S Y Y f s w r 3 2 2 f J T z ",
"6 x J J J s s e 5 < q 7 b R H l k k k k z K | o.$.$.$.#.o.) M J z < < x J J J s s w w 1 4 2 f F E b ",
"} ) Y H H d e e 5 & 7 8 b T R l k k z z } *.*.*.=.=.=.*.*.*.%.X.! ( { } Y J H f p q w < , < b F W b ",
"$.$.X.T J s p e 5 < 3 b A ! S l k k k F %.*.=.-.=.:.:.=.=.=.=.*.%.%.%.%.@.! J f d q w < < 7 L K ^ l ",
"=.=.=.o.H f r e - & 7 L o.^ H G ( _ V U $.;.:.X.&.;.:.-.-.-.=.-.-.=.=.-.=.*.R l d q w < * v  .Q Y H ",
":.:.:.;.[ b s e q 0 L +.$.#.#.%.%.=.=.^ ' =.] G Q L |  .O.+.o.O.*.:.:.:.:.:.O.Z d q w 0 x  .#.$.#.%.",
" .' } #.*.T v U o.$.*.*.*.*.*.=.=.=.^ t ( U 5 a x = N J K | +.+.] / X.] ] O.*.} M G ` #.*.=.*.*.*.=.",
"6 O 4 j V ' =.-.=.=.%.=.=.:.:.:.$.P X - K I - f g $ c H v Y o.U ; 0 p $ < d x L %.-.=.=.*.=.=.;.:.:.",
"w & < d b ^ O.o.{ ) x F G { *.$.Q $   & M L 5 r j # b S M Y | & O - p - < s f M o.o. .) U F H ( #.*.",
"p & 4 d m W H M N K ' v J ) ) ) = O . $ m K w w x # f Z A F { ; % = k 5 < s b A E m F A ^ H M ^ )  .",
"b < > d m K N H A F o.M H ) | G & O . $ b V w 4 Z : d M x S I z & - z 6 # s b H K N F v ) H H ( | ' ",
"A 4 > s m H H H M z K M H ( { V = % . # f A z 5 h : s Z f F c k - p H p > r f H N N A v v M M E { W ",
"E ; < s b H H v M a A m M W ( A - % . @ d Z b < 8 : w x w H v k t n E v , r l H N v M c z M M Y ) I ",
"Q 5 2 s b M v v v z A n A R E V * O   $ d x b & : > a M x G F v ^ K ( z 2 r f A N c v c m n M K E E ",
"A a i p n v M n v z M m M J R S & o   7 d n z 4 # B o.o.#.#.$.%.#.{ V z i s b F n v v n b n M H K W ",
"*.*.*.*.%.O.{ ) / ^ v m M H E x O o y Z s A m 6 h *.-.-.=.-.-.=.-.*.*.*.*.&.%.%.{ ) ) { H M M M T I ",
":.:.;.;.:.:.:.:.-.*.o.M M L T g @ = o.~ w n n p 4 g ..*.=.*.*.:.:.:.:.:.:.:.:.:.:.:.=.=.+.H M M ( A ",
"&.%.&.#.#.#.*.*.%.%.%.%.#.o.^ a @ D %.$.{ E K v 4 7 d F ! | o.o.+.@.&.&.&.#.#.+.%.*.*.%.$.*.#.O.] v ",
"x M E f a p _ %.*.*.=.-.:.%.T a # ^ -.=.=.*.*.#...] x b N W o.k n n b n T f f f G %.*.*.=.=.:.=.) V ",
"M M H k p e G | #.*.&.$.O.g x z $ A =.:.-.*.*.=.;.:.=.v H W { q n M n M S d f p c _ +.*.$.&.#.G i S ",
"S F A k a e K W | o.A n z - z j > f ' :.#.y b ! O.O.D d N R R q A S A H N k l s c R { o.E b x 6 6 x ",
"z x v k e f W R ( | M l p & z d > f ) ] w < e J W ] 9 5 v K c q M S M f c k a w G K W } E b k - i z ",
"z w k p s T R R R E M b 5 5 n f , a ( V p 4 e J E W ; 4 A K 0 w M J n w p p i Y E I R E J l p < b b ",
"x w M U  .X.E R J R M l < s A f 4 f ! S w = 5 A K E = & A A & p n K S q k G {  ._ E K G J b e 5 n x ",
"z 5 #.$.$.#.#.{ J J f 4 : f S f 4 b F v p 4 w S H K 4 4 n 6 # d M J M 5 Q %.#.$.#.o.E S M 8 # r M n ",
"a d *.*.*.*.*.%.#.} T 9 V j A f 2 x k x z 7 a A H H = v x 6 i x M M z 5 } *.*.*.*.$.$.] ! u i j Z b ",
"B ] -.-.=.=.=.*.=.*.=.X.] X.( Z U ! u c G p { o.} [ } #.} / o.@.o.J v T *.=.-.=.=.*.=.=.=.#./ X.[ A ",
"=.*.=.=.:.;.=.=.=.*.&.$.=.=.;.;.:.;.=.=.*.*.-.:.:.-.=.:.:.:.;.:.:.-.-.*.=.=.:.:.-.=.=.=.&.@.=.=.:.:.",
"*.| | O.$.*.o._ ! A 8 B =.=.=.:.:.:.:.;.:.:.:.:.:.;.&.@.#.*.-.:.:.-.-.O.|  .#.=.#.{ ( T s 5 #.;.;.:.",
"( W _ | #.} b r 8 2 > a o.%.;.;.:.;.=.:.:.*.%.o.O.' t i Q U { +.o.) ~ Y ( _ +.o.S s e 3 2 4 ^ $.=.:.",
"4 J ( { | ( d r r 2 , r ! o.O.#.O.#.[ o.+.| o. .Q ; > 6 W W Y { U 4 % N W | | +.l r w 2 2 2 S o.O.+.",
"> S W _ ) H p s 8 2 , r R  .L z i z C n c k N F i = & 5 R E K } V 3 : m R | ( { d p r 7 2 2 M { ) n ",
"> Z E ) _ b s p r 3 , 7 S { S f k l k c z l m N a - < & S J H ( S 4 # b Y ( [ H r p s 3 2 , b ) E b ",
"> M Y E ( l d p w 3 , 7 S ( v b m l k z k m k N k - = = J J n R x 2 # b Y E ) b d e p 7 2 2 b ! E m ",
"2 Z J R R l s i q 7 , 7 n E A l k z k k l m l m x a 9 G Y J b J n > # j J Y R f d w e 7 , 2 f Y T z ",
"> n J R K d s e q 2 7 7 b R A k k k k z m m H { O.#.#.+.( L b S b > : j J Y Y f d w w < 7 , f S R k ",
"T T S H F d e e 5 , 8 8 b E R f k k k z W O.%.&.=.*.*.*.&.#.} _ G Z I ( G F S d p w w < 2 2 f J W m ",
"$.#.{ H F d s e 5 > 3 f b ! R b k k z v $.*.=.;.:.:.:.:.=.=.*.*.$.$.#.%.X.Y H f s w w < < 2 S L ( z ",
"*.*.*.{ J f r e 5 < 7 V ) E z A L I c L %.=.;.#.=.:.:.:.:.:.=.=.=.=.*.=.*.#.K f d q w < < f ) R L n ",
":.:.:.=.J b s p q & p o.#.#.#.#.%.*.*.` o.:.$.Q ' ..$.O.#.%.+.*.:.:.;.:.:.:.' b f q w & 6 ) +.#.#.$.",
"$.@.#.*.$.F z A G ) #.*.*.*.*.*.=.=.o.B / ] g z V - J W ( { o. ...O.$.#.#.&.*./ l z G Q O.&.*.%.*.*.",
"i $ 6 x Q o.*.*.=.:.:.:.:.;.;.:.=.] + = E I 4 f z < n H c E +.#.u t a & = f L [ $.*.=.=.:.:.:.;.:.;.",
"6 $ 4 d f ^ %.#.O.o.Q ` } #.=.*.` ;   & F G 5 r a # b J H K  .; O ; p 4 < s d x #.#.#.O.] ` { O.*.=.",
"i & < d c ^ K H H I Q v H ( ) ] ; O . $ m I w w h @ f M Z K { - O = a 5 > s l A ) v J H Q N v ^ ) o.",
"k < < d m K N H A H +.M J ) } I & O X $ b F w 7 A : d Z M S ^ p & - k q > s l H H N H v ) H A ( { | ",
"m 4 > s b K H H M v U n N ) | V & %   # f S p 5 h : i S b H v k - 0 v w : r f H H N H v V H M W | W ",
"T - < s b H F v M k A m M W ) A & & . # a Z x & s : r n i F v k ; z Y z > r l H H N M c b M M E ) Y ",
"( 6 2 r b A v v v k A m H I W v - #   # f n z < $ : 8 n p A z z G F ( v 2 r f N N c v m z M M L E I ",
"I i 6 d n v M x v k v m M J E C & o   7 d n k & # a Q T { }  .{ +.( U z 6 d h H n n n n z m M F R ( ",
"#.#.O.O.O.{ T G G H n M M H E v % o + j d S m 6 g $.=.=.*.=.=.=.*.%.#.#.+.o.o.O.E L K L c m n A R T "
};
